<svg width="31" height="29" viewBox="0 0 31 29" fill="none" xmlns="http://www.w3.org/2000/svg">
<path id="image 1053 (Traced)" fill-rule="evenodd" clip-rule="evenodd" d="M15.2816 0.0835632C14.9643 0.221396 14.6768 0.505891 14.5233 0.833968L14.3766 1.14737L14.3759 5.86516C14.3755 9.26728 14.3956 10.6501 14.4479 10.8238C14.542 11.1365 14.8835 11.5297 15.2101 11.7015C15.4433 11.8241 15.5824 11.84 16.6054 11.8607L17.7417 11.8836L17.7616 12.835C17.7845 13.9259 17.8331 14.048 18.2444 14.0477C18.4435 14.0475 18.6182 13.924 19.7816 12.9612L21.094 11.875L25.381 11.8734C29.9601 11.8718 30.0028 11.8691 30.4352 11.5628C30.5419 11.4873 30.7125 11.2811 30.8141 11.1047L30.9991 10.7839L30.9997 5.9481C31.0003 0.648076 31.0192 0.919266 30.618 0.464734C30.1754 -0.0366756 30.7991 -0.000181155 22.6878 0.00100009C16.8738 0.00187049 15.4326 0.0179106 15.2816 0.0835632ZM29.8891 1.10248L30.0315 1.24411V5.91054V10.577L29.8561 10.7271L29.6808 10.8771H25.2489H20.817L20.2055 11.3696C19.8692 11.6404 19.4042 12.0202 19.1722 12.2136L18.7503 12.5651V11.8737C18.7503 11.2226 18.7414 11.1734 18.5969 11.0298L18.4435 10.8771H17.0628H15.6821L15.5288 10.7245L15.3753 10.5719V5.9333C15.3753 2.76997 15.3965 1.25524 15.4419 1.17087C15.4785 1.1028 15.5699 1.02228 15.645 0.991944C15.7223 0.960797 18.8148 0.942021 22.7642 0.94886L29.7468 0.960859L29.8891 1.10248ZM17.9575 3.72735C17.6641 3.84615 17.5928 4.30094 17.8324 4.52488L17.9771 4.66004H23.013C27.7173 4.66004 28.0576 4.65289 28.1806 4.55124C28.3941 4.37492 28.415 4.09117 28.2302 3.87749L28.0737 3.69638L23.0839 3.6842C20.2824 3.67736 18.0342 3.69626 17.9575 3.72735ZM17.8128 7.20905C17.7354 7.28602 17.6878 7.41627 17.6878 7.55099C17.6878 7.68571 17.7354 7.81596 17.8128 7.89293C17.9357 8.01522 18.0211 8.01727 23.0219 8.01727C28.0676 8.01727 28.1068 8.01634 28.2218 7.88982C28.3898 7.70524 28.375 7.34732 28.1933 7.20103C28.0549 7.08949 27.8398 7.08471 22.9934 7.08471C18.0211 7.08471 17.9357 7.08676 17.8128 7.20905ZM8.76878 8.27261C8.38497 8.38302 8.37553 8.43027 8.37328 10.2538C8.37153 11.6641 8.35534 11.948 8.26141 12.2138C8.20103 12.3848 7.60472 13.3514 6.93635 14.3619L5.7211 16.1991L5.5951 16.0151C5.52579 15.9139 5.38973 15.7727 5.29267 15.7011C5.12129 15.5748 5.0511 15.5711 2.87536 15.5711C0.69962 15.5711 0.629432 15.5748 0.458058 15.7011C0.360996 15.7727 0.218371 15.9237 0.140997 16.0367L0.000372194 16.2423V21.9279C0.000372194 28.3164 -0.0303777 27.9039 0.467121 28.1939L0.73012 28.3472H2.87674C4.88798 28.3472 5.03948 28.3394 5.27885 28.2242C5.41935 28.1565 5.58454 28.0166 5.64585 27.9133C5.7511 27.7361 5.7796 27.7255 6.14904 27.7255H6.54066L6.9011 28.1314C7.10629 28.3624 7.3871 28.6004 7.55285 28.6837C8.16522 28.9914 8.30434 29 12.6878 29H16.7816L17.1343 28.8277C17.5461 28.6264 17.9557 28.2097 18.1459 27.7986C18.3529 27.3511 18.3374 26.56 18.1133 26.1355L17.9468 25.82L18.1539 25.7454C18.2678 25.7044 18.4847 25.5626 18.6359 25.4303C19.3137 24.8368 19.5219 23.8359 19.1276 23.067C19.0576 22.9306 19.0003 22.8065 19.0003 22.7913C19.0003 22.7761 19.1496 22.6798 19.3322 22.5774C20.0083 22.1978 20.3741 21.5824 20.3741 20.8245C20.3741 20.4571 20.3408 20.2871 20.2171 20.0228C20.1308 19.8383 20.0677 19.6824 20.0771 19.6764C20.0864 19.6703 20.2244 19.5912 20.3837 19.5005C20.7716 19.2797 21.216 18.7763 21.3383 18.4195C21.4563 18.0749 21.4679 17.4283 21.3624 17.0704C21.3118 16.8987 21.1616 16.6887 20.9057 16.4321C20.5826 16.1082 20.4594 16.0298 20.0995 15.9192C19.6885 15.7929 19.5557 15.7887 16.025 15.7887C14.0177 15.7887 12.3753 15.7758 12.3753 15.7601C12.3753 15.7443 12.4446 15.4576 12.5293 15.1228C12.9176 13.587 13.0452 11.9233 12.8504 10.9348C12.5832 9.57988 11.7826 8.63432 10.6343 8.31756C10.1859 8.1939 9.1309 8.16847 8.76878 8.27261ZM10.5781 9.29364C10.98 9.43303 11.4575 9.87351 11.6535 10.2858C11.7412 10.4701 11.8596 10.8954 11.9168 11.2309C12.0061 11.7552 12.0106 11.9543 11.9491 12.649C11.8692 13.5519 11.6718 14.5587 11.3781 15.5617C11.2701 15.9302 11.199 16.2851 11.2198 16.3504C11.2406 16.4158 11.3301 16.526 11.4187 16.5953C11.5765 16.7187 11.6608 16.7213 15.5869 16.7259C19.6798 16.7308 19.7777 16.7361 20.1034 16.9699C20.6575 17.3678 20.6057 18.3563 20.0115 18.7239C19.7894 18.8613 19.7251 18.8668 18.1253 18.8855C16.5396 18.904 16.4631 18.9104 16.3284 19.0362C16.0387 19.3069 16.2223 19.8265 16.6097 19.8324C18.4837 19.861 18.6647 19.8719 18.8441 19.9671C19.241 20.1778 19.4378 20.4989 19.4378 20.9355C19.4378 21.2739 19.2843 21.5581 18.9804 21.7824C18.8203 21.9007 18.6961 21.9154 17.6154 21.9436C16.4593 21.9738 16.4232 21.9787 16.3071 22.1215C16.1429 22.3234 16.1528 22.6359 16.3284 22.7966C16.4455 22.9036 16.5711 22.9293 17.0777 22.9501C17.5642 22.9701 17.7202 23.0002 17.8551 23.1004C18.5547 23.6201 18.4854 24.5902 17.724 24.9343C17.5227 25.0252 17.3139 25.0497 16.7319 25.0508C16.0334 25.0521 15.9866 25.0602 15.8413 25.2048C15.5449 25.4995 15.6951 25.9507 16.1115 26.0165C16.9273 26.1454 17.2474 26.3866 17.298 26.9104C17.3363 27.3063 17.2906 27.4818 17.0866 27.7229C16.7495 28.1215 16.897 28.1066 12.9773 28.1375C8.28153 28.1745 8.03628 28.1454 7.55228 27.4937C7.2201 27.0464 6.82804 26.8566 6.23473 26.8557L5.81285 26.8551V22.3878V17.9206L7.4171 15.5024C8.29941 14.1724 9.09397 12.9303 9.18272 12.7423C9.34146 12.4059 9.3444 12.3737 9.3644 10.7597L9.38471 9.11913L9.83315 9.15494C10.0798 9.17465 10.415 9.23707 10.5781 9.29364ZM4.81286 22.0058V27.4146H2.87536H0.937869V22.0058V16.5969H2.87536H4.81286V22.0058ZM2.64055 24.0091C2.44093 24.1049 2.35799 24.4468 2.38418 25.0666C2.41118 25.7067 2.50811 25.8604 2.88505 25.8604C3.30586 25.8604 3.37536 25.7278 3.37536 24.925C3.37536 24.2788 3.3663 24.2292 3.22192 24.0857C3.05892 23.9235 2.87074 23.8987 2.64055 24.0091Z" fill="white"/>
</svg>
