<svg width="27" height="29" viewBox="0 0 27 29" fill="none" xmlns="http://www.w3.org/2000/svg">
<path id="image 1056 (Traced)" fill-rule="evenodd" clip-rule="evenodd" d="M6.39917 2.01242C3.25773 3.11538 0.620555 4.10795 0.538959 4.21807C0.150291 4.74195 -0.134206 9.17152 0.0657035 11.5894C0.780075 20.2334 4.57442 25.8532 11.3182 28.2553C12.5214 28.684 12.7953 28.6842 13.079 28.2566C13.4784 27.6546 13.2092 27.3898 11.5513 26.7544C7.8392 25.3318 5.43879 23.192 3.67618 19.7345C2.03284 16.5107 1.20451 11.779 1.55469 7.61532C1.64349 6.5603 1.74794 5.577 1.78683 5.43035C1.84408 5.2148 2.81657 4.82951 6.84836 3.42533C9.5931 2.46942 11.9919 1.6325 12.1789 1.56549C12.4559 1.46624 13.5 1.78815 17.8205 3.30527L23.1222 5.16686L23.2403 5.70229C23.3051 5.99694 23.3734 7.73954 23.3919 9.57481C23.4275 13.1101 23.4353 13.1499 24.0783 13.1499C24.2279 13.1499 24.437 13.0956 24.5431 13.0294C25.2031 12.6168 25.0093 4.79017 24.3232 4.15066C24.0142 3.86259 12.9578 -0.00924971 12.471 1.66055e-05C12.2728 0.00391114 9.54061 0.909458 6.39917 2.01242ZM16.7176 9.36222C16.6335 9.41647 15.3883 10.8811 13.9507 12.6168C12.5131 14.3526 11.291 15.7728 11.2347 15.7728C11.1785 15.7728 10.5308 15.0476 9.7956 14.1612C9.06028 13.2749 8.3931 12.5052 8.31286 12.451C7.8902 12.1649 7.14713 12.551 7.14713 13.0567C7.14713 13.3214 10.7054 17.6483 11.0216 17.7681C11.1453 17.815 11.3594 17.7938 11.4973 17.721C11.635 17.6481 13.0994 15.9619 14.7512 13.9736C17.9046 10.1783 18.0728 9.89765 17.4523 9.46858C17.1195 9.23827 16.9483 9.21356 16.7176 9.36222ZM20.3376 15.2939C19.4012 15.5752 18.6787 16.1734 18.2183 17.0486C18.0385 17.3903 17.956 17.9123 17.9157 18.9623L17.8605 20.4059H17.3516C16.7247 20.4059 16.0329 20.8439 15.654 21.4807C15.4069 21.8962 15.3693 22.2217 15.3279 24.3066C15.2986 25.7906 15.3384 26.8726 15.4358 27.2293C15.638 27.9711 16.2904 28.691 16.9158 28.8624C17.2006 28.9406 19.0804 28.9996 21.2956 29C25.0508 29.0008 25.1963 28.991 25.7828 28.6986C26.1822 28.4994 26.4928 28.2133 26.6933 27.8593C26.9789 27.3553 26.9978 27.162 26.9999 24.7326C27.0024 21.8958 26.9348 21.5638 26.2203 20.9008C25.9425 20.6431 25.6019 20.4932 25.1496 20.4296L24.4862 20.3364L24.4149 18.8603C24.3356 17.2229 24.1907 16.8278 23.3862 16.0563C22.6181 15.3195 21.327 14.9967 20.3376 15.2939ZM21.9651 16.8444C22.762 17.2513 22.9223 17.6236 22.9223 19.067V20.3777L21.1544 20.3875L19.3865 20.3973L19.3868 19.2266C19.3869 17.8269 19.6287 17.2311 20.3385 16.881C20.9208 16.5937 21.4507 16.5818 21.9651 16.8444ZM25.2814 22.0003C25.4752 22.1593 25.5062 22.5184 25.5062 24.6085C25.5062 26.6755 25.473 27.0685 25.2811 27.2779C25.0732 27.5049 24.763 27.5235 21.2013 27.5235C17.5279 27.5235 17.3338 27.5109 17.0746 27.2549C16.8247 27.0081 16.8026 26.8073 16.8026 24.7792C16.8026 22.3893 16.891 21.9347 17.3733 21.8462C17.5456 21.8147 19.3449 21.7949 21.3716 21.8025C24.2795 21.8132 25.1041 21.8548 25.2814 22.0003ZM20.6881 23.4371C20.5308 23.5926 20.4745 23.9216 20.4745 24.686C20.4745 25.824 20.5888 26.0463 21.1739 26.0463C21.7218 26.0463 21.9704 25.6061 21.9704 24.6362C21.9704 23.7038 21.7177 23.2261 21.2245 23.2261C21.047 23.2261 20.8057 23.3211 20.6881 23.4371Z" fill="white"/>
</svg>
