<svg width="36" height="22" viewBox="0 0 36 22" fill="none" xmlns="http://www.w3.org/2000/svg">
<path id="image 1052 (Traced)" fill-rule="evenodd" clip-rule="evenodd" d="M0.0508631 0.589375L0.101562 1.17875L2.26855 1.2226L4.43554 1.26645V8.57014V15.8738H2.22767H0.0197892V16.5025V17.1312H2.88185H5.74391V16.022V14.9128L6.41936 14.9612L7.09481 15.0094L8.83167 17.8612C9.78694 19.4297 10.7157 20.8719 10.8956 21.066C11.3482 21.5545 12.4109 21.9958 13.1444 21.9999C13.6851 22.0029 13.7577 21.9582 13.7577 21.6233C13.7577 20.9483 13.5889 20.746 13.0263 20.746C12.7332 20.746 12.3085 20.6061 12.0825 20.4353C11.8563 20.2644 10.9139 18.8675 9.98811 17.3312C7.61047 13.386 7.86789 13.6735 6.71407 13.6735H5.74391V8.40841V3.14333H9.01484H12.2858V2.51467V1.886H9.01484H5.74391V0.943V0H2.87204H0L0.0508631 0.589375ZM16.8978 0.950858C16.6909 1.03054 16.1953 1.31156 15.7966 1.57528C15.1513 2.00199 14.4884 2.78499 10.1227 8.27922C9.78384 8.70562 11.059 10.1603 12.1579 10.6007C13.5914 11.1753 14.58 10.7441 16.8914 8.53572L18.635 6.87007L19.7276 6.95431C20.3287 7.00067 20.8805 7.09922 20.9539 7.1734C21.0273 7.24758 22.278 9.48972 23.7329 12.1561C25.6168 15.6081 26.3527 17.1026 26.2888 17.3468C26.1496 17.8804 25.2923 18.5931 24.925 18.4811C24.6329 18.3921 23.9298 17.4342 21.7101 14.101C21.2046 13.342 20.6796 12.6799 20.5432 12.6296C20.225 12.5122 19.8089 12.8427 19.8089 13.2128C19.8089 13.5374 22.8792 18.2261 23.5451 18.9186C24.9001 20.3278 26.3993 19.8366 27.5805 17.5968L27.9918 16.8168H29.1338H30.2759V17.642V18.4671L32.1975 18.444C33.2545 18.4312 34.5425 18.4136 35.0596 18.4047L36 18.3885V17.8384V17.2883H33.7921H31.5842V9.9015V2.51467H33.7921H36V1.96458V1.4145H33.1461H30.2922L30.2432 2.26037L30.1941 3.10608L27.428 1.94604L24.662 0.785833L20.968 0.795734C18.9362 0.801235 17.1047 0.871018 16.8978 0.950858ZM27.3729 3.26592L30.2759 4.46102V9.99344C30.2759 14.8933 30.2463 15.5367 30.0171 15.6213C29.5226 15.8037 27.2156 15.7251 27.0462 15.5202C26.9569 15.4122 25.719 13.1911 24.2955 10.5845L21.707 5.8455L19.9209 5.73328L18.135 5.62122L16.2325 7.42989C15.1863 8.42476 14.1693 9.31715 13.9729 9.41286C13.4667 9.65977 12.8186 9.62897 12.2975 9.33318C11.3473 8.79363 11.3738 8.68943 12.9779 6.66418C15.7834 3.12164 16.1474 2.7303 17.0306 2.30736C17.8634 1.90863 17.8782 1.90753 21.1681 1.98894L24.47 2.07067L27.3729 3.26592ZM0.510428 11.7875C-0.262983 12.5307 0.525148 13.7422 1.54044 13.3713C2.49997 13.0206 2.19365 11.4732 1.16461 11.4732C0.984713 11.4732 0.690329 11.6146 0.510428 11.7875ZM34.2375 13.1324C33.6394 13.5349 33.7854 14.5321 34.4793 14.7858C35.4946 15.1567 36.2828 13.9452 35.5094 13.202C35.1164 12.8243 34.7266 12.8031 34.2375 13.1324ZM16.5877 15.033C16.5146 15.2161 16.7198 15.7506 17.1804 16.5759C19.2769 20.3326 19.5893 20.6449 21.1547 20.5484C21.6701 20.5167 22.1355 20.4486 22.189 20.3972C22.2425 20.3458 22.1671 20.0823 22.0215 19.8118C21.7854 19.3728 21.6995 19.3302 21.2247 19.4159C20.458 19.554 20.1609 19.2468 18.7872 16.8954C17.7551 15.1285 17.5332 14.8455 17.1467 14.8024C16.8364 14.7678 16.6654 14.8384 16.5877 15.033ZM13.5959 17.3649C13.3441 17.6564 13.3938 17.7781 14.5008 19.5859C15.4777 21.181 15.9273 21.5336 16.9796 21.5295C17.9541 21.5257 18.126 21.3442 17.7001 20.7694C17.4933 20.4901 17.2489 20.3237 17.1173 20.3722C16.6943 20.5282 16.2945 20.1508 15.5727 18.9144C15.1768 18.2362 14.7422 17.5576 14.607 17.4062C14.3062 17.0695 13.8664 17.0516 13.5959 17.3649Z" fill="white"/>
</svg>
