<svg width="29" height="29" viewBox="0 0 29 29" fill="none" xmlns="http://www.w3.org/2000/svg">
<path id="image 1055 (Traced)" fill-rule="evenodd" clip-rule="evenodd" d="M11.9412 0.133506C11.5213 0.324005 11.1428 0.724427 10.9821 1.14825C10.9154 1.32409 10.8608 2.09131 10.8608 2.85308V4.23814L10.3229 4.43137L9.78494 4.62448L8.758 3.6186C7.5814 2.46595 7.12706 2.25728 6.28333 2.48197C5.88495 2.58795 5.51716 2.89307 4.1901 4.2186C2.86304 5.54414 2.55757 5.91151 2.45147 6.30943C2.22652 7.15219 2.43543 7.606 3.5894 8.78125L4.59644 9.80702L4.40595 10.3361L4.21546 10.8653L2.65583 10.9018C0.961549 10.9416 0.767761 11.0071 0.234502 11.7205C0.0144431 12.015 0 12.1866 0 14.5167C0 16.8467 0.0144431 17.0184 0.234502 17.3128C0.767761 18.0262 0.961549 18.0917 2.65583 18.1315L4.21546 18.1681L4.40595 18.6972L4.59644 19.2263L3.5894 20.2521C2.43543 21.4273 2.22652 21.8811 2.45147 22.7239C2.55757 23.1218 2.86304 23.4892 4.1901 24.8147C5.51716 26.1403 5.88495 26.4454 6.28333 26.5513C7.12706 26.776 7.5814 26.5674 8.758 25.4147L9.78494 24.4088L10.3147 24.5991L10.8444 24.7894L10.881 26.3472C10.9208 28.0396 10.9865 28.2331 11.7006 28.7658C11.9954 28.9856 12.1673 29 14.5 29C16.8327 29 17.0046 28.9856 17.2994 28.7658C18.0135 28.2331 18.0792 28.0396 18.119 26.3472L18.1556 24.7894L18.6853 24.5991L19.2151 24.4088L20.242 25.4147C21.4186 26.5674 21.8729 26.776 22.7167 26.5513C23.115 26.4454 23.4828 26.1403 24.8099 24.8147C26.137 23.4892 26.4424 23.1218 26.5485 22.7239C26.7735 21.8811 26.5646 21.4273 25.4106 20.2521L24.4036 19.2263L24.594 18.6972L24.7845 18.1681L26.3442 18.1315C28.0385 18.0917 28.2322 18.0262 28.7655 17.3128C28.9856 17.0184 29 16.8467 29 14.5167C29 12.1866 28.9856 12.015 28.7655 11.7205C28.2322 11.0071 28.0385 10.9416 26.3442 10.9018L24.7845 10.8653L24.594 10.3361L24.4036 9.80702L25.4106 8.78125C26.5646 7.606 26.7735 7.15219 26.5485 6.30943C26.4424 5.91151 26.137 5.54414 24.8099 4.2186C23.4828 2.89307 23.115 2.58795 22.7167 2.48197C21.8729 2.25728 21.4186 2.46595 20.242 3.6186L19.2151 4.62448L18.6853 4.43421L18.1556 4.24394L18.119 2.6861C18.0792 0.993987 18.0137 0.800649 17.2997 0.267548C17.0097 0.0510365 16.8084 0.031271 14.6342 0.00605296C12.844 -0.0147349 12.2008 0.0157085 11.9412 0.133506ZM16.7518 1.36238C16.8452 1.45575 16.8882 2.01282 16.8882 3.13059C16.8882 4.02811 16.9391 4.85723 17.0011 4.9731C17.0631 5.08885 17.3063 5.24584 17.5412 5.32184C17.7763 5.39795 18.2101 5.58095 18.5051 5.72862C18.8001 5.87618 19.1583 5.99614 19.3011 5.995C19.4714 5.99364 19.8907 5.67091 20.5187 5.05784C21.5211 4.07911 22.0886 3.61155 22.2737 3.61155C22.4067 3.61155 25.1636 6.31238 25.3165 6.5924C25.4835 6.89808 25.2077 7.30339 24.0611 8.43695C22.9134 9.57165 22.8758 9.67422 23.2981 10.5162C23.446 10.8109 23.6292 11.2441 23.7054 11.4789C23.7815 11.7136 23.9386 11.9565 24.0545 12.0185C24.1705 12.0804 25.0006 12.1312 25.8992 12.1312C27.0182 12.1312 27.5759 12.1741 27.6694 12.2675C27.7657 12.3637 27.8059 13.0248 27.8059 14.5167C27.8059 16.0085 27.7657 16.6696 27.6694 16.7658C27.5759 16.8592 27.0182 16.9021 25.8992 16.9021C25.0006 16.9021 24.1705 16.9529 24.0545 17.0148C23.9386 17.0769 23.7815 17.3197 23.7054 17.5544C23.6292 17.7892 23.446 18.2225 23.2981 18.5171C22.8639 19.3826 22.9059 19.4978 24.0619 20.6169C25.2028 21.7213 25.4853 22.1319 25.3165 22.4409C25.1636 22.7209 22.4067 25.4218 22.2737 25.4218C22.0838 25.4218 21.5086 24.9431 20.5333 23.9734C19.4782 22.9244 19.3497 22.882 18.5051 23.3047C18.2101 23.4524 17.7763 23.6354 17.5412 23.7115C17.3063 23.7875 17.0631 23.9445 17.0011 24.0602C16.9391 24.1761 16.8882 25.0052 16.8882 25.9027C16.8882 27.0205 16.8452 27.5776 16.7518 27.6709C16.5593 27.8631 12.4407 27.8631 12.2482 27.6709C12.1548 27.5776 12.1118 27.0205 12.1118 25.9027C12.1118 25.0052 12.0609 24.1761 11.9989 24.0602C11.9369 23.9445 11.6937 23.7875 11.4588 23.7115C11.2237 23.6354 10.7899 23.4524 10.4949 23.3047C9.652 22.8828 9.5493 22.9204 8.4133 24.0668C7.27843 25.2121 6.87266 25.4875 6.56662 25.3208C6.28629 25.168 3.58235 22.4142 3.58235 22.2814C3.58235 22.0935 4.05727 21.5359 5.03235 20.5785C6.09068 19.5396 6.13947 19.3895 5.70186 18.5171C5.55401 18.2225 5.3708 17.7892 5.2946 17.5544C5.21852 17.3197 5.06135 17.0769 4.94547 17.0148C4.82947 16.9529 3.99938 16.9021 3.10084 16.9021C1.98178 16.9021 1.42407 16.8592 1.33059 16.7658C1.13816 16.5736 1.13816 12.4597 1.33059 12.2675C1.42407 12.1741 1.98178 12.1312 3.10084 12.1312C3.99938 12.1312 4.82947 12.0804 4.94547 12.0185C5.06135 11.9565 5.21852 11.7136 5.2946 11.4789C5.3708 11.2441 5.55401 10.8109 5.70186 10.5162C6.13947 9.64378 6.09068 9.49372 5.03235 8.45478C4.05727 7.49741 3.58235 6.93977 3.58235 6.75188C3.58235 6.61909 6.28629 3.86532 6.56662 3.71254C6.87186 3.54624 7.27707 3.82295 8.40545 4.96833C9.53554 6.11564 9.64324 6.15483 10.4949 5.72862C10.7899 5.58095 11.2237 5.39795 11.4588 5.32184C11.6937 5.24584 11.9369 5.08885 11.9989 4.9731C12.0609 4.85723 12.1118 4.02811 12.1118 3.13059C12.1118 2.01282 12.1548 1.45575 12.2482 1.36238C12.4407 1.17017 16.5593 1.17017 16.7518 1.36238ZM14.0678 6.81493C13.8824 7.0002 13.8953 7.52967 14.0895 7.69063C14.1765 7.76265 14.655 7.86807 15.1531 7.92486C17.5039 8.19261 19.4524 9.54257 20.4432 11.5899C20.9606 12.6594 21.1049 13.2943 21.1069 14.5104C21.11 16.4121 20.5244 17.8181 19.159 19.1878C17.8199 20.5313 16.3979 21.1214 14.5 21.1214C13.3059 21.1214 12.6395 20.9694 11.5699 20.453C9.51928 19.4629 8.14024 17.4742 7.9079 15.172C7.85889 14.6872 7.75494 14.2136 7.67693 14.1196C7.50679 13.9149 6.98024 13.8944 6.78941 14.085C6.57515 14.299 6.62792 15.6239 6.88813 16.5618C7.85434 20.0443 10.8911 22.3547 14.5023 22.3547C15.9351 22.3547 16.7312 22.1731 17.9686 21.5636C20.7256 20.2058 22.3471 17.5962 22.3471 14.5167C22.3471 12.678 21.8633 11.2141 20.7701 9.74545C19.8118 8.45762 17.9934 7.25817 16.381 6.85014C15.5649 6.64363 14.2592 6.62375 14.0678 6.81493ZM8.60902 9.20042C8.40511 9.40409 8.44435 9.9122 8.68055 10.1256C8.96066 10.3789 10.2513 10.3863 10.608 10.1368C10.9029 9.93061 10.9386 9.49883 10.6821 9.24256C10.4599 9.02071 8.82237 8.98732 8.60902 9.20042ZM12.2482 9.20042C12.0443 9.40409 12.0836 9.9122 12.3198 10.1256C12.4647 10.2566 12.7348 10.3136 13.2109 10.3136H13.8942L13.9103 11.3497C13.9194 11.9364 13.9829 12.4539 14.0566 12.5425C14.2261 12.7466 14.7761 12.7439 14.9471 12.5382C15.1365 12.3102 15.1418 9.45942 14.9532 9.23245C14.7727 9.01515 12.4611 8.98777 12.2482 9.20042ZM7.47438 11.6265C7.17949 11.8326 7.14378 12.2644 7.40023 12.5207C7.54421 12.6644 7.86355 12.6991 9.04118 12.6991C10.6261 12.6991 10.8608 12.6184 10.8608 12.0727C10.8608 11.5777 10.4866 11.4496 9.04118 11.4496C8.03584 11.4496 7.66771 11.4912 7.47438 11.6265ZM10.1263 13.926C9.23258 13.9646 9.04118 14.0688 9.04118 14.5167C9.04118 15.0922 9.18584 15.123 11.7955 15.1033L14.1978 15.085L15.7471 16.6184C17.3273 18.1824 17.59 18.3432 17.9606 17.9732C18.3426 17.5916 18.1794 17.3369 16.4417 15.6042L14.7444 13.9115L12.831 13.9018C11.7787 13.8963 10.5616 13.9072 10.1263 13.926Z" fill="white"/>
</svg>
