<svg width="33" height="22" viewBox="0 0 33 22" fill="none" xmlns="http://www.w3.org/2000/svg">
<g id="Group">
<path id="Vector" d="M15.519 0H3.15874C1.4126 0 0 1.42241 0 3.15874V11.5461C0 13.2039 1.28508 14.5773 2.92331 14.7048V17.0101C2.92331 17.3044 3.09988 17.5791 3.37455 17.687C3.46284 17.7262 3.56094 17.7458 3.65904 17.7458C3.85523 17.7458 4.04162 17.6674 4.17895 17.53L6.99435 14.7146H14.3026V15.7839C14.3026 17.53 15.725 18.9524 17.4712 18.9524H26.0056L28.821 21.7678C28.9584 21.9052 29.1546 21.9837 29.341 21.9837C29.4391 21.9837 29.5273 21.964 29.6254 21.9248C29.9001 21.8071 30.0767 21.5422 30.0767 21.2479V18.9328C31.7051 18.8053 33 17.4417 33 15.7741V7.38674C33 5.64061 31.5776 4.21819 29.8315 4.21819H18.6876V3.14893C18.6876 1.4126 17.2652 0 15.519 0ZM6.68044 13.2432C6.48424 13.2432 6.29786 13.3216 6.16052 13.459L4.38496 15.2345V13.9789C4.38496 13.5767 4.05143 13.2432 3.64923 13.2432H3.15874C2.22681 13.2432 1.47146 12.4878 1.47146 11.5559V3.16855C1.47146 2.23662 2.22681 1.48127 3.15874 1.48127H15.519C16.451 1.48127 17.2063 2.23662 17.2063 3.16855V11.5559C17.2063 12.4878 16.451 13.2432 15.519 13.2432H6.68044ZM29.8216 5.69947C30.7536 5.69947 31.5187 6.45481 31.5187 7.39655V15.7839C31.5187 16.7158 30.7634 17.481 29.8216 17.481H29.3312C28.929 17.481 28.5954 17.8145 28.5954 18.2167V19.4724L26.8199 17.6968C26.6825 17.5595 26.4961 17.481 26.2999 17.481H17.4614C16.5294 17.481 15.7643 16.7256 15.7643 15.7839V14.7048C17.3927 14.5773 18.6778 13.2137 18.6778 11.5559V5.70927H29.8216V5.69947Z" fill="white"/>
<path id="Vector_2" d="M9.35878 10.3101C9.16258 10.3101 8.9762 10.3885 8.83886 10.5259C8.70152 10.6632 8.62305 10.8496 8.62305 11.0458C8.62305 11.242 8.70152 11.4284 8.83886 11.5657C8.9762 11.703 9.16258 11.7815 9.35878 11.7815C9.55497 11.7815 9.74136 11.703 9.8787 11.5657C10.016 11.4284 10.0945 11.242 10.0945 11.0458C10.0945 10.8496 10.016 10.6632 9.8787 10.5259C9.74136 10.3885 9.55497 10.3101 9.35878 10.3101Z" fill="white"/>
<path id="Vector_3" d="M9.33938 2.93262C8.08374 2.93262 7.05371 3.95283 7.05371 5.21829V5.26734C7.05371 5.66954 7.38724 6.00307 7.78944 6.00307C8.19164 6.00307 8.52517 5.66954 8.52517 5.26734V5.21829C8.52517 4.77685 8.88813 4.40408 9.33938 4.40408C9.79063 4.40408 10.1536 4.76704 10.1536 5.21829C10.1536 5.64992 9.98683 6.05212 9.68272 6.35622C9.00585 7.03309 8.63308 7.93559 8.63308 8.89695C8.63308 9.29915 8.96661 9.63268 9.36881 9.63268C9.77101 9.63268 10.1045 9.29915 10.1045 8.89695C10.1045 8.32798 10.3204 7.79825 10.7226 7.39605C11.3013 6.81728 11.6251 6.04231 11.6251 5.21829C11.6251 3.95283 10.595 2.93262 9.33938 2.93262Z" fill="white"/>
</g>
</svg>
