<svg width="31" height="26" viewBox="0 0 31 26" fill="none" xmlns="http://www.w3.org/2000/svg">
<path id="image 1054 (Traced)" fill-rule="evenodd" clip-rule="evenodd" d="M5.54377 0.0566348C5.22681 0.10447 4.92531 0.174073 4.87376 0.211376C4.8223 0.24868 4.54894 0.35383 4.26646 0.445025C3.98398 0.536308 3.75278 0.642248 3.75278 0.680517C3.75278 0.718785 3.69534 0.75012 3.62512 0.75012C3.55499 0.75012 3.44252 0.804187 3.37534 0.870191C3.30807 0.936284 3.16451 1.01791 3.05624 1.05162C2.94805 1.08541 2.85943 1.14983 2.85943 1.19486C2.85943 1.23989 2.81253 1.27675 2.75527 1.27675C2.63636 1.27675 1.2514 2.64897 1.2514 2.76676C1.2514 2.80933 1.20066 2.89632 1.13857 2.96013C0.938189 3.16604 0.715387 3.54899 0.715387 3.6874C0.715387 3.76148 0.678402 3.82213 0.633109 3.82213C0.587905 3.82213 0.522512 3.94923 0.487761 4.1045C0.453099 4.25985 0.392619 4.44742 0.353401 4.52141C0.314183 4.5954 0.218683 4.93245 0.14114 5.27037C-0.155184 6.56228 0.024826 8.17693 0.589692 9.29304C0.658837 9.4297 0.715387 9.584 0.715387 9.63587C0.715387 9.68775 0.815889 9.8596 0.938725 10.0179C1.06156 10.1761 1.16206 10.344 1.16206 10.3911C1.16206 10.4868 2.32985 11.6753 2.68773 11.9437C3.86811 12.8293 5.55199 13.3532 6.96885 13.2758C8.45467 13.1947 9.16167 12.9784 10.4529 12.2098C10.9753 11.8989 12.2396 10.7402 12.2396 10.5725C12.2396 10.5355 12.2898 10.4515 12.3513 10.3856C12.5065 10.2194 12.6473 9.98801 12.8737 9.5273C13.3982 8.46052 13.499 7.99375 13.499 6.63083C13.499 5.19725 13.4188 4.85705 12.7707 3.54065C12.4902 2.97066 12.3518 2.77581 11.7176 2.0581C11.0787 1.33503 9.74431 0.539292 8.58822 0.191716C7.99602 0.0138023 6.32081 -0.0606284 5.54377 0.0566348ZM8.66621 1.44817C8.93645 1.55516 9.22786 1.66365 9.31389 1.68937C9.39992 1.71508 9.47023 1.76669 9.47023 1.80408C9.47023 1.84147 9.57073 1.89695 9.69357 1.92723C9.8164 1.95751 9.91691 2.02106 9.91691 2.06836C9.91691 2.11576 9.96131 2.15447 10.0155 2.15447C10.123 2.15447 11.231 3.2309 11.4159 3.51493C11.4788 3.61148 11.5537 3.75955 11.5827 3.84408C11.6115 3.9286 11.6706 3.99768 11.7141 3.99768C11.7574 3.99768 11.7929 4.04104 11.7929 4.09414C11.7929 4.14715 11.8507 4.31506 11.9214 4.46717C12.3499 5.38991 12.4756 7.09751 12.1847 8.04703C11.9051 8.95986 11.2493 10.0555 10.6614 10.5923C9.91128 11.2773 8.91099 11.784 7.8622 12.0105C7.0287 12.1904 5.23619 12.0617 4.96327 11.8023C4.91664 11.7579 4.80676 11.7216 4.71921 11.7216C4.42271 11.7216 3.35399 11.001 2.74776 10.3923C2.41606 10.0593 2.14475 9.75103 2.14475 9.70723C2.14475 9.66343 2.09445 9.57478 2.03308 9.51027C1.92883 9.40082 1.76311 9.08221 1.5395 8.56181C1.35199 8.12515 1.16206 7.15377 1.16206 6.63083C1.16206 5.98922 1.36905 5.08938 1.66225 4.45611C1.78026 4.20131 1.87674 3.95449 1.87674 3.90753C1.87674 3.86058 1.91694 3.82213 1.96608 3.82213C2.01521 3.82213 2.05541 3.77842 2.05541 3.72506C2.05541 3.47982 2.89222 2.59034 3.54195 2.1449C3.78074 1.98121 3.98952 1.8176 4.00587 1.78144C4.02231 1.74528 4.09127 1.71561 4.15917 1.71561C4.22715 1.71561 4.43486 1.65092 4.62076 1.57175C5.5209 1.1888 5.47472 1.19574 6.92418 1.22681C7.96592 1.24919 8.25697 1.28623 8.66621 1.44817ZM4.17587 2.96636C3.87106 3.19377 3.84256 3.49571 4.08198 3.95967C4.20473 4.19753 4.33158 4.41205 4.36392 4.43627C4.45335 4.50333 4.64479 4.81246 4.70384 4.98511C4.7327 5.06963 4.79184 5.13871 4.83526 5.13871C4.87858 5.13871 4.91414 5.18251 4.91414 5.23605C4.91414 5.28959 5.19554 5.77901 5.53948 6.32363C5.88342 6.86825 6.16483 7.33748 6.16483 7.36627C6.16483 7.39515 6.23407 7.49819 6.31867 7.59535C6.55192 7.86297 6.93249 7.82058 7.90687 7.41849C8.00513 7.37794 8.48754 7.21548 8.97889 7.0574C9.47023 6.89932 9.96318 6.71413 10.0743 6.64575C10.3327 6.48688 10.4188 6.1501 10.2706 5.87801C10.1731 5.69922 10.0878 5.66534 9.73404 5.66534C9.35686 5.66534 8.86784 5.79928 8.4846 6.00748C8.40929 6.04838 8.20828 6.11122 8.03792 6.14703C7.86756 6.18293 7.68799 6.24332 7.63886 6.28132C7.55256 6.34812 7.22095 6.39718 6.99118 6.37726C6.92981 6.3719 6.87951 6.31108 6.87951 6.24209C6.87951 6.17319 6.82913 6.06453 6.76766 6.00072C6.70611 5.93699 6.57631 5.7367 6.47929 5.55563C6.38227 5.37464 6.27185 5.22648 6.23389 5.22648C6.19592 5.22648 6.16483 5.18268 6.16483 5.12914C6.16483 4.95641 4.90753 3.03491 4.7352 2.94424C4.51311 2.8275 4.35356 2.83382 4.17587 2.96636ZM14.54 6.38656C14.3458 6.62539 14.3381 7.01237 14.524 7.19512C14.6438 7.31282 14.9779 7.333 16.8021 7.333H18.9398V12.4238V17.5145H10.0509H1.16206V14.2806C1.16206 11.259 1.15134 11.0371 0.998669 10.9014C0.773365 10.701 0.342502 10.717 0.154541 10.9326C0.0126765 11.0954 0.000705622 11.519 0.000705622 16.3735C0.000705622 21.228 0.0126765 21.6516 0.154541 21.8144C0.293725 21.974 0.416829 21.9909 1.44356 21.9909C2.35638 21.9909 2.60617 21.9639 2.71908 21.853C2.90901 21.6663 2.89615 21.2694 2.69264 21.0388C2.54908 20.8762 2.43071 20.8499 1.84396 20.8499H1.16206V19.7527V18.6556H10.0509C17.4373 18.6556 18.9398 18.6755 18.9398 18.7736C18.9398 19.1497 19.6743 19.3189 19.9473 19.0057C20.0897 18.8423 20.1011 18.3729 20.1011 12.7014V6.57369L19.8944 6.38279C19.6922 6.19618 19.6321 6.19197 17.192 6.19311C14.732 6.19425 14.6941 6.19706 14.54 6.38656ZM22.0854 11.8935C21.6454 11.9257 21.4069 11.9837 21.3498 12.0727C21.3008 12.1489 21.2646 13.499 21.2638 15.2788C21.2626 18.2513 21.2685 18.3583 21.4421 18.5044C21.7043 18.725 22.0237 18.6929 22.2386 18.4243C22.4165 18.2022 22.4238 18.0903 22.4238 15.6058V13.0186L24.341 13.0513C25.7084 13.0745 26.29 13.1151 26.369 13.1927C26.4298 13.2525 26.5308 13.3015 26.5934 13.3015C26.6559 13.3015 26.9302 13.4053 27.2032 13.5322C27.7105 13.7683 28.9453 14.8813 28.9453 15.1026C28.9453 15.1659 28.9754 15.231 29.0123 15.2471C29.1179 15.2932 29.392 15.8152 29.392 15.9701C29.392 16.0472 29.4225 16.1102 29.4598 16.1102C29.4971 16.1102 29.5976 16.4163 29.6832 16.7904C29.8017 17.3086 29.8387 17.8731 29.8386 19.1603V20.8499H28.308H26.7774L26.5661 21.0912C26.307 21.3872 26.3003 21.5495 26.5367 21.7988C26.7135 21.9853 26.7769 21.9909 28.7056 21.9909C30.5855 21.9909 30.7006 21.9814 30.8462 21.8144C30.9829 21.6574 31 21.3911 31 19.4077C31 17.1463 30.9608 16.7861 30.598 15.7152C30.4655 15.3243 30.043 14.5493 29.8648 14.3705C29.8013 14.3067 29.7493 14.2187 29.7493 14.175C29.7493 14.0753 28.5991 12.9504 28.4971 12.9504C28.4558 12.9504 28.3689 12.8989 28.304 12.8359C28.1396 12.6763 27.0416 12.1605 26.8665 12.1605C26.7872 12.1605 26.6996 12.124 26.6715 12.0795C26.5737 11.924 23.4207 11.7961 22.0854 11.8935ZM23.1077 13.7253C22.9782 13.8659 22.9598 14.1642 22.9598 16.1195C22.9598 18.2488 22.9682 18.3603 23.1395 18.5044C23.3013 18.6405 23.5988 18.6556 26.1167 18.6556H28.9141L29.1084 18.4525C29.2459 18.3086 29.3026 18.1386 29.3026 17.8702C29.3026 17.2007 28.9501 16.0822 28.5371 15.4411C28.2136 14.939 27.5421 14.267 27.364 14.267C27.3001 14.267 27.2479 14.2364 27.2479 14.1991C27.2479 14.1079 26.7635 13.8688 26.2398 13.7014C25.9341 13.6037 25.4481 13.5648 24.5339 13.5648C23.4089 13.5648 23.2378 13.584 23.1077 13.7253ZM26.0419 14.8514C26.1402 14.9024 26.3613 15.015 26.5332 15.1016C27.1824 15.4287 27.9044 16.4636 27.9766 17.1706L28.0073 17.4706L26.0642 17.4943L24.1212 17.518V16.1017V14.6854L24.9922 14.722C25.4713 14.7421 25.9436 14.8003 26.0419 14.8514ZM6.12954 19.3175C4.69107 19.7144 3.70418 20.7568 3.50032 22.0947C3.41867 22.6308 3.53052 23.7706 3.66952 23.8194C3.71535 23.8356 3.75278 23.9055 3.75278 23.9748C3.75278 24.2577 4.69571 25.414 4.92638 25.414C4.96175 25.414 5.04385 25.4654 5.1088 25.5283C5.66804 26.0699 7.61876 26.1551 8.42617 25.6732C8.58278 25.5797 8.77118 25.4762 8.84488 25.4431C9.28647 25.2448 10.1849 24.0028 10.1849 23.5908C10.1849 23.489 10.2251 23.3812 10.2742 23.3514C10.4108 23.2684 10.3781 22.1723 10.2256 21.7276C9.90368 20.788 9.25145 19.9685 8.6027 19.6884C8.46566 19.6291 8.33121 19.5506 8.30396 19.5137C8.23848 19.4251 7.47413 19.2596 6.96885 19.2247C6.74774 19.2094 6.37003 19.2512 6.12954 19.3175ZM21.8878 19.2659C21.8141 19.3149 21.6573 19.3556 21.5394 19.3564C21.4214 19.3571 21.1199 19.4574 20.8694 19.5793C18.7329 20.618 18.2703 23.4017 19.9654 25.0188C20.5397 25.5665 21.0189 25.8177 21.7331 25.9449C22.3656 26.0576 23.2584 25.9909 23.6262 25.8034C23.7622 25.7341 23.9293 25.6773 23.9974 25.6773C24.0655 25.6773 24.1212 25.6404 24.1212 25.5954C24.1212 25.5504 24.1916 25.4908 24.2775 25.463C24.7018 25.3255 25.3245 24.5426 25.6429 23.7463C25.8036 23.3442 25.8299 23.1317 25.7999 22.4736C25.7801 22.0392 25.7203 21.6047 25.6671 21.5082C25.6139 21.4116 25.4955 21.1826 25.4041 20.9993C25.0309 20.2506 24.0932 19.5343 23.2381 19.3441C22.5935 19.2008 22.0343 19.1684 21.8878 19.2659ZM7.90803 20.6368C8.29663 20.8181 8.68649 21.2068 8.88509 21.6113C8.97567 21.796 9.08412 22.0156 9.12602 22.0994C9.23135 22.3101 9.22188 23.0219 9.11289 23.088C9.06376 23.1179 9.02355 23.2203 9.02355 23.3157C9.02355 23.6796 8.39133 24.3945 7.84371 24.6499C7.4241 24.8455 6.34904 24.8521 5.94033 24.6615C5.56861 24.4882 4.91414 23.8834 4.91414 23.7132C4.91414 23.6429 4.86393 23.5689 4.80247 23.5488C4.65569 23.5007 4.64461 21.838 4.79041 21.7464C4.84526 21.7119 4.91825 21.5949 4.95282 21.4862C4.9873 21.3775 5.05297 21.2887 5.09879 21.2887C5.14462 21.2887 5.18223 21.2394 5.18232 21.179C5.1825 21.0273 5.87994 20.6084 6.30518 20.5047C6.74604 20.3972 7.53318 20.4621 7.90803 20.6368ZM23.4795 20.6976C23.6959 20.8038 23.9484 20.99 24.0407 21.1116C24.1331 21.2332 24.2411 21.3721 24.2807 21.4204C24.4559 21.6334 24.6572 22.2905 24.6572 22.6492C24.6572 22.8645 24.5898 23.2093 24.5075 23.4154C24.3593 23.7866 23.6955 24.5363 23.5151 24.5363C23.4635 24.5363 23.4057 24.5824 23.3866 24.6389C23.3652 24.7021 23.0603 24.7565 22.5928 24.7806C21.963 24.8131 21.766 24.7894 21.4353 24.6414C20.6803 24.3035 20.1011 23.4387 20.1011 22.6492C20.1011 22.2781 20.3345 21.5813 20.5221 21.3922C20.5853 21.3284 20.6371 21.2414 20.6371 21.1989C20.6371 21.0666 21.4119 20.5905 21.7702 20.5027C22.2534 20.3842 23.0188 20.4716 23.4795 20.6976ZM11.0938 21.053C10.8599 21.2976 10.8452 21.5754 11.0534 21.8144C11.2026 21.9855 11.3114 21.9909 14.6132 21.9909C17.8101 21.9909 18.0309 21.9808 18.2114 21.827C18.4648 21.6111 18.4548 21.3309 18.1844 21.0653L17.9652 20.8499H14.6267H11.2881L11.0938 21.053ZM6.53173 21.5266C6.31661 21.6103 5.97419 21.9375 5.84367 22.184C5.59487 22.6538 5.71029 23.0837 6.19806 23.5048C6.4189 23.6953 6.56657 23.746 6.90185 23.7462C7.27795 23.7463 7.36683 23.7064 7.68353 23.3952C8.00513 23.0793 8.04087 23.0003 8.04087 22.6053C8.04087 22.3639 8.0071 22.1664 7.96592 22.1664C7.92464 22.1664 7.84799 22.0739 7.79555 21.9609C7.63413 21.6129 6.93088 21.3711 6.53173 21.5266ZM22.0222 21.5252C21.9242 21.5516 21.7088 21.714 21.5436 21.886C21.2628 22.1786 21.2458 22.2308 21.2796 22.6917C21.33 23.3754 21.7167 23.7463 22.3792 23.7463C23.4211 23.7463 23.9167 22.5038 23.1541 21.8035C22.8818 21.5535 22.3774 21.4295 22.0222 21.5252Z" fill="white"/>
</svg>
