<svg width="105" height="50" viewBox="0 0 105 50" fill="none" xmlns="http://www.w3.org/2000/svg">
<path id="Vector" fill-rule="evenodd" clip-rule="evenodd" d="M30.3889 0C30.4552 0 30.5548 0.0333333 30.588 0.0666667C30.6211 0.1 34.8676 2.06667 40.0429 4.46667C45.1851 6.86667 49.4315 8.83333 49.4315 8.83333C49.4647 8.86667 49.3651 9.33333 48.967 11.0333L47.9718 12.3C47.441 13 47.0097 13.6 46.9765 13.6C46.9433 13.5667 46.9433 13.5 46.9433 13.3667C46.9765 13.2333 47.1756 12.4333 47.3746 11.6C47.6068 10.7333 47.7395 10 47.7395 9.96667C47.7064 9.96667 44.0903 8.26667 39.678 6.2C35.2657 4.16667 31.4837 2.43333 31.2846 2.36667C31.0524 2.26667 30.7538 2.23333 30.4221 2.23333C30.024 2.23333 29.8249 2.3 29.3273 2.46667C28.9955 2.6 24.6164 4.6 19.5406 6.9C11.9766 10.3333 10.2847 11.1333 10.0525 11.3667C9.88661 11.5 9.72073 11.7 9.65438 11.8333C9.58803 11.9333 8.46007 14.8 7.13306 18.1667C5.83923 21.5667 4.74445 24.3333 4.74445 24.3333C4.77762 24.3667 5.17572 24.0333 5.67335 23.6333C6.13781 23.2667 6.93401 22.6667 7.43164 22.3C7.89609 21.9667 8.79182 21.3333 9.38898 20.9333C10.0193 20.5333 10.9482 19.9333 11.479 19.6333C12.0098 19.3 12.9719 18.8 13.5691 18.4667C14.1994 18.1333 15.1946 17.6 15.825 17.3333C16.4553 17.0333 17.4837 16.6 18.1141 16.3333C18.7444 16.0667 19.6401 15.7333 20.1046 15.5667C20.569 15.4333 21.2657 15.2333 21.6638 15.1C22.0619 15 22.5264 14.9 22.7254 14.8667C22.9245 14.8333 23.0903 14.8333 23.0903 14.8667C23.0903 14.9 22.5595 15.1667 21.9292 15.4667C21.2989 15.7667 20.2705 16.3 19.6069 16.6667C18.9434 17.0333 17.9482 17.6 17.4174 17.9333C16.8866 18.2667 15.7918 18.9667 14.9956 19.4667C14.2326 20 13.0383 20.8333 12.3416 21.3333C11.6781 21.8333 10.6828 22.6333 10.152 23.0667C9.58803 23.5 8.65912 24.3 8.06197 24.8333C7.43164 25.3667 6.30368 26.4333 5.50748 27.2333C4.71127 28.0333 3.68284 29.0667 3.28474 29.5333C2.85346 30 2.52171 30.4 2.52171 30.4333C2.52171 30.4667 5.7397 33.7333 9.68755 37.7333C13.6686 41.7333 16.9198 45 16.9529 45C16.9861 45 20.7681 43.4 33.6401 37.8333L39.4457 37.8C44.0571 37.8 45.2514 37.8333 45.2514 37.9C45.2514 37.9333 45.185 38.3 44.8865 39.4333L32.7775 44.6333C26.1093 47.5 20.6022 49.9 20.5359 49.9333C20.4695 49.9667 20.4032 50 20.3368 50C20.3036 50 19.242 49.3333 15.7586 46.9667L7.86292 38.9C2.05725 32.9667 -0.0327872 30.8 0.000388016 30.7C0.0335632 30.6333 1.82503 26 7.92927 10.2333L18.678 5.33333C24.5832 2.63333 29.5927 0.333333 29.8249 0.233333C30.0571 0.1 30.3225 0 30.3889 0ZM27.4695 9.86667H30.787C33.3747 9.86667 34.0713 9.86667 34.0382 9.93333C34.0382 9.96667 33.7396 10.4333 32.7443 11.8L28.2325 11.8333L27.9008 13.1C27.7349 13.8333 27.6022 14.4667 27.6022 14.5333C27.569 14.6333 27.7349 14.6333 32.1472 14.6667L30.787 16.5H27.0714L25.8439 21.7333L24.0193 21.7667C23.024 21.7667 22.2278 21.7333 22.2278 21.7333C22.2278 21.7 22.8249 19.1667 23.5548 16.1C24.2847 13.0333 24.915 10.5333 24.9482 10.5C24.9482 10.4667 25.5453 10.3333 26.242 10.1667L27.4695 9.86667ZM37.5216 9.86667H39.4126C40.441 9.86667 41.6353 9.86667 42.0666 9.93333C42.4647 9.96667 43.0618 10.0333 43.3604 10.1333C43.659 10.2 44.0903 10.3333 44.3225 10.4667C44.5215 10.5667 44.8201 10.7667 44.986 10.9C45.1187 11.0333 45.3178 11.3 45.4173 11.4667C45.5279 11.6889 45.5942 11.9667 45.6163 12.3C45.6495 12.6333 45.6163 12.9667 45.55 13.2C45.5168 13.4333 45.3841 13.8333 45.2514 14.0667C45.1187 14.3333 44.8201 14.7333 44.5879 15C44.3225 15.2667 43.9576 15.5667 43.7585 15.7333C43.5263 15.8667 43.1614 16.1 42.9623 16.2C42.7301 16.3 42.3652 16.4333 42.1329 16.5C41.9007 16.5333 41.6685 16.6 41.6685 16.6C41.6685 16.6 42.2325 17.5333 42.9291 18.6667C43.6258 19.8 44.1898 20.7333 44.1898 20.7333C44.1898 20.7667 46.0476 18.3 52.3509 9.86667L55.2703 9.9L56.4978 15.6C57.1613 18.7667 57.7585 21.4333 57.8248 21.7667L54.2087 21.7333L53.9765 20.5C53.8438 19.8333 53.7111 19.2667 53.7111 19.2667C53.7111 19.2333 52.4836 19.2333 48.2703 19.2333L46.3794 21.7667L40.9054 21.7333L39.1803 18.8333C38.2183 17.2333 37.422 15.9 37.422 15.9C37.3889 15.8667 37.1898 16.6 36.9576 17.5333C36.7585 18.4333 36.4268 19.7667 35.9292 21.7667H34.1045C33.0761 21.7667 32.2467 21.7667 32.2467 21.7667C32.2467 21.7333 32.877 19.2 33.6069 16.1C34.3699 13 34.9671 10.4667 35.0003 10.4667C35.0003 10.4667 35.5642 10.3333 36.2609 10.1667L37.5216 9.86667ZM38.4173 11.7C38.3841 11.7333 38.1519 12.5667 37.9197 13.5667C37.6875 14.5667 37.4884 15.4 37.4884 15.4333C37.4884 15.5 37.8533 15.5 38.4505 15.5C39.2467 15.4667 39.5453 15.4333 39.9765 15.3C40.2751 15.2 40.64 15.0667 40.8059 14.9667C40.9718 14.8667 41.204 14.7 41.3035 14.6C41.4362 14.5 41.6353 14.2333 41.7348 14C41.8344 13.8 41.9339 13.4667 41.9671 13.3C42.0002 13.1 41.9671 12.9333 41.9007 12.7C41.8344 12.5667 41.7017 12.3333 41.569 12.2C41.4362 12.0667 41.204 11.9333 41.0713 11.8667C40.9386 11.8333 40.6069 11.7333 40.3415 11.6667C40.0761 11.6333 39.6448 11.6 39.4126 11.6C39.1803 11.6 38.8486 11.6333 38.7159 11.6333C38.5832 11.6333 38.4173 11.6667 38.4173 11.7ZM49.6637 17.4667C49.6637 17.5 50.4931 17.5 51.5215 17.5H53.3793C53.3462 17.2667 53.1471 16.4 52.9481 15.4C52.749 14.4333 52.5831 13.6 52.55 13.6C52.55 13.6 51.8864 14.4333 51.0902 15.5C50.294 16.5667 49.6637 17.4333 49.6637 17.4667ZM61.2087 9.86667H63.9622L69.7015 17.8L70.2324 15.5333C70.5309 14.3 70.9622 12.5 71.5925 9.86667H72.82C73.4835 9.86667 74.0475 9.86667 74.0475 9.9C74.0475 9.93333 73.4172 12.5667 72.6541 15.7333C71.8911 18.9333 71.2276 21.6 71.2276 21.6667C71.1944 21.7667 71.0949 21.7667 68.5072 21.7667L65.6542 17.8667C64.0949 15.7333 62.8011 14 62.7679 14.0333C62.7679 14.0667 62.3366 15.8 61.839 17.8667C61.3414 19.9667 60.9101 21.7 60.8769 21.7333C60.8769 21.7333 60.313 21.7667 59.6163 21.7667C58.621 21.7667 58.3556 21.7667 58.3888 21.7C58.3888 21.6333 59.0191 18.9667 59.8153 15.7333L61.2087 9.86667ZM85.4266 9.86667C87.1185 9.86667 88.0143 9.9 88.0143 9.93333C88.0143 9.96667 87.6825 10.4 86.6209 11.8667H84.7631C83.038 11.9 82.9053 11.9333 82.275 12.1C81.91 12.1667 81.3129 12.4 80.948 12.6C80.583 12.7667 80.0854 13.0667 79.8532 13.3C79.5878 13.5 79.256 13.8 79.1233 14C78.9574 14.2 78.7584 14.5333 78.6589 14.7333C78.5593 14.9333 78.4266 15.2667 78.3603 15.5C78.2718 15.7667 78.2276 16.1 78.2276 16.5C78.2607 16.9333 78.2939 17.2 78.3935 17.5C78.4598 17.7 78.5925 18 78.692 18.1667C78.7584 18.3 79.0238 18.5667 79.2228 18.7667C79.4551 19 79.82 19.2333 80.019 19.3333C80.2513 19.4333 80.6494 19.6 80.9148 19.6667C81.3461 19.7667 81.6778 19.7667 83.4029 19.7667C85.0285 19.7667 85.4266 19.8 85.3934 19.8667C85.3934 19.9333 85.0949 20.3667 84.0664 21.7667H81.8769C80.2181 21.7333 79.5546 21.7 79.0901 21.6333C78.7584 21.5667 78.2939 21.4667 78.0617 21.3667C77.8295 21.3 77.4645 21.1667 77.2655 21.0667C77.0333 21 76.7015 20.8 76.4693 20.6667C76.2371 20.5 75.839 20.1667 75.5736 19.9C75.3082 19.6333 75.0096 19.2333 74.8769 18.9333C74.7442 18.7 74.5783 18.3 74.512 18.1C74.4456 17.8 74.3793 17.4667 74.3793 17C74.3793 16.5333 74.4456 16.1 74.512 15.7667C74.5783 15.4667 74.7442 14.9667 74.8769 14.6667C75.0096 14.3333 75.275 13.8667 75.4409 13.6C75.6399 13.3 76.038 12.8333 76.3698 12.5C76.7015 12.1667 77.1992 11.7333 77.4977 11.5333C77.7963 11.3333 78.2607 11.0667 78.5593 10.9333C78.8579 10.8 79.3555 10.5667 79.6873 10.4667C80.019 10.3667 80.583 10.2 80.9811 10.1333C81.3461 10.0667 81.9432 9.96667 82.275 9.93333C82.6067 9.9 84.0332 9.86667 85.4266 9.86667ZM91.9953 9.86667H95.4124C97.6351 9.86667 98.7962 9.9 98.7962 9.93333C98.7962 9.96667 98.4977 10.4 97.436 11.8L92.7583 11.8333L92.4266 13.1333C92.2607 13.8333 92.0948 14.4667 92.0948 14.5333C92.0948 14.6333 92.2939 14.6667 97.6683 14.7L96.3081 16.5L91.5972 16.5333L91.2323 18.1333C91.0001 19.0333 90.8342 19.7667 90.8342 19.8C90.8342 19.8333 92.1944 19.8333 93.8199 19.8333C95.7773 19.8333 96.8057 19.8667 96.8057 19.9C96.8057 19.9667 96.5071 20.4 95.4787 21.7667H91.0664C86.9195 21.7667 86.6873 21.7667 86.7204 21.6667C86.7204 21.6 87.3176 19.0667 88.0806 16.0333C88.8105 12.9667 89.4076 10.5 89.4076 10.5C89.4076 10.4667 90.0048 10.3333 90.7015 10.1667L91.9953 9.86667ZM24.1188 23.8H35.3652L36.7585 27.1333L40.0429 23.7667H41.6685C42.5642 23.7667 43.3272 23.8 43.3272 23.8333C43.3272 23.8667 42.3652 24.8333 41.1377 25.9667C39.9102 27.1333 38.6827 28.3 37.787 29.1333L39.3794 32.3333C40.2751 34.1 40.9718 35.6 40.9718 35.6333C40.9718 35.6667 40.3083 35.7 37.1235 35.7L36.1614 33.6C35.6306 32.4333 35.1661 31.5 35.133 31.5C35.0998 31.5333 34.0714 32.4667 30.5216 35.7H24.6496C19.1093 35.7 18.8107 35.7 18.8107 35.5667C18.8439 35.5 19.4411 32.9667 20.2041 29.9333C20.934 26.9 21.5311 24.4 21.5311 24.4C21.5311 24.4 22.1283 24.2667 22.8249 24.1L24.1188 23.8ZM24.8155 25.9667C24.7823 26.1 24.6496 26.7 24.4837 27.3C24.351 27.9 24.2183 28.4333 24.2183 28.5C24.2183 28.5667 24.8486 28.5667 27.005 28.6H29.7917L28.4316 30.4333L23.7207 30.4667C23.1567 32.9 22.9908 33.6333 22.9576 33.6667C22.9576 33.7333 23.588 33.7667 25.7775 33.7667H28.5974C32.8107 30.2667 34.0382 29.2667 34.0714 29.2333C34.0714 29.2333 33.7064 28.4333 33.242 27.4667L32.3794 25.7H24.8818L24.8155 25.9667ZM47.441 23.8L49.7301 23.8333C51.3888 23.8333 52.185 23.8667 52.6163 23.9667C52.9481 24 53.4125 24.1 53.6447 24.2C53.877 24.2667 54.2419 24.4333 54.4741 24.5667C54.7063 24.7333 54.9386 24.9667 55.0713 25.1667C55.204 25.3333 55.3367 25.6 55.3698 25.7667C55.403 25.9 55.4362 26.3333 55.4362 26.7C55.4362 27.2 55.403 27.4667 55.3035 27.8C55.2371 28.0333 55.0713 28.3667 54.9717 28.5667C54.8722 28.7333 54.64 29.0333 54.4741 29.2C54.3414 29.4 54.0428 29.6667 53.8438 29.8333C53.6447 29.9667 53.2466 30.2333 52.9812 30.3667C52.6827 30.5333 52.2182 30.7333 51.9196 30.8333C51.621 30.9667 51.0902 31.1333 50.6921 31.2C50.095 31.3333 49.8296 31.3333 46.8438 31.3667L45.7822 35.6667L43.9907 35.7C42.5642 35.7 42.1661 35.7 42.1661 35.6333C42.1661 35.5667 42.7633 33.0667 43.4931 30.0333C44.223 26.9667 44.8533 24.4667 44.8865 24.4333C44.9196 24.4333 45.4836 24.2667 46.1803 24.1L47.441 23.8ZM48.204 25.6C47.5405 28.4667 47.3083 29.3333 47.3083 29.3667C47.2751 29.4333 47.3083 29.4667 47.3746 29.5C47.441 29.5 47.64 29.5333 47.8722 29.5333C48.0713 29.5333 48.5026 29.5 48.8343 29.4667C49.1661 29.4 49.5974 29.3333 49.8296 29.2667C50.0618 29.2333 50.3936 29.1 50.5926 29C50.7917 28.9 51.0902 28.7 51.2561 28.5333C51.4552 28.3333 51.621 28.1 51.6874 27.8333C51.7869 27.6333 51.8533 27.3 51.8533 27.1333C51.8533 26.9333 51.7869 26.7 51.7206 26.5333C51.6542 26.4 51.4883 26.2 51.3556 26.0667C51.1898 25.9667 50.8912 25.8 50.659 25.7333C50.3604 25.6333 49.9955 25.5667 49.4647 25.5667C49.0334 25.5333 48.6021 25.5667 48.4694 25.5667L48.204 25.6ZM60.0807 23.8L62.4693 23.8333C64.3603 23.8333 64.9575 23.8667 65.4883 23.9667C65.82 24.0333 66.2513 24.1333 66.4504 24.2C66.6826 24.3 66.948 24.4 67.0807 24.5C67.2466 24.5667 67.512 24.8 67.6779 25C67.9101 25.2667 68.0428 25.4667 68.1091 25.7333C68.1755 26 68.2087 26.2667 68.1755 26.7333C68.1423 27.2333 68.1091 27.4667 67.9764 27.7667C67.8769 28 67.6447 28.3667 67.4788 28.6C67.3129 28.8333 66.9812 29.2 66.7158 29.3667C66.4836 29.5667 66.0191 29.8667 65.7205 30.0333C65.3888 30.2 64.9243 30.4 64.2276 30.5667L65.7869 33.1C66.6162 34.4667 67.3461 35.6333 67.3129 35.6667C67.3129 35.7 66.4504 35.7333 63.4978 35.7333L61.7727 32.8333C60.8438 31.2667 60.0476 29.9333 60.0144 29.8667C59.948 29.8 59.7822 30.5 59.2513 32.7C58.8532 34.3333 58.5215 35.6667 58.5215 35.6667C58.4883 35.7 57.6589 35.7 54.839 35.7L56.1992 30.1C56.9291 27.0333 57.5594 24.4667 57.5926 24.4667C57.5926 24.4333 58.1897 24.2667 58.8532 24.1L60.0807 23.8ZM60.9101 25.8667C60.8769 26 60.6779 26.8333 60.4457 27.7333C60.2134 28.6667 60.0476 29.4 60.0476 29.4333C60.0476 29.4333 60.4788 29.4667 61.0096 29.4333C61.64 29.4333 62.1376 29.3667 62.403 29.3C62.602 29.2333 63.0001 29.1 63.2656 28.9667C63.5752 28.8111 63.8185 28.6333 63.9954 28.4333C64.1613 28.2333 64.3603 27.9333 64.4267 27.7333C64.493 27.5667 64.5594 27.2667 64.5594 27.0667C64.5594 26.9 64.493 26.6333 64.4267 26.5C64.3603 26.3667 64.1945 26.1667 64.0286 26.0667C63.8959 25.9333 63.5973 25.8 63.3651 25.7333C63.0665 25.6333 62.7016 25.6 62.2371 25.5667C61.839 25.5667 61.4077 25.5667 61.2419 25.5667C60.9765 25.6 60.9765 25.6333 60.9101 25.8667ZM74.0475 23.8H77.6968C80.6162 23.8 81.3792 23.8333 81.3461 23.9C81.3461 23.9333 81.0143 24.3667 80.019 25.8L74.7774 25.8333L74.4788 27.1333C74.3129 27.8333 74.147 28.4667 74.147 28.5C74.147 28.5667 74.7442 28.6 79.6873 28.6333L78.3603 30.4333L73.6826 30.5L73.3176 31.9667C73.1186 32.7667 72.9527 33.5 72.8864 33.7333H75.9053C78.2939 33.7333 78.9243 33.7333 78.8911 33.8C78.8911 33.8667 78.5593 34.3 77.5309 35.7333H73.1186C70.6968 35.7333 68.7063 35.7 68.7063 35.7C68.7063 35.7 69.3366 33.1667 70.0665 30.0667C70.8295 26.9667 71.4267 24.4333 71.4598 24.4333C71.4598 24.4333 72.057 24.2667 72.7537 24.1L74.0475 23.8ZM90.4361 23.8C92.8247 23.8 93.1564 23.8 93.1233 23.9C93.1233 23.9667 92.7915 24.4 91.7631 25.7667L89.474 25.8C87.4171 25.8333 87.1186 25.8667 86.6209 26C86.3555 26.0667 85.9906 26.2333 85.8579 26.3333C85.681 26.4444 85.5593 26.5889 85.493 26.7667C85.3934 27 85.3934 27.0667 85.493 27.2333C85.5261 27.3667 85.692 27.5 85.8911 27.5667C86.0238 27.6667 86.9858 27.9333 87.9479 28.2333C88.9432 28.5 89.9053 28.7667 90.1043 28.8667C90.3034 28.9333 90.6351 29.1 90.801 29.2333C91 29.3333 91.2655 29.5667 91.4313 29.7667C91.564 29.9333 91.7631 30.2 91.8294 30.3333C91.929 30.5667 91.9621 30.7667 91.9621 31.1667C91.9621 31.4667 91.929 31.9 91.8626 32.1333C91.7963 32.3667 91.6636 32.7667 91.5309 33.0333C91.365 33.3333 91.0996 33.6667 90.7678 34C90.3365 34.4333 90.1375 34.5667 89.5735 34.8667C89.2086 35.0333 88.6778 35.2333 88.3792 35.3333C88.1138 35.4 87.583 35.5 87.2181 35.5667C86.6873 35.6667 85.9574 35.6667 83.3034 35.7C81.147 35.7 80.0522 35.7 80.0522 35.6667C80.0522 35.6 80.3508 35.1667 81.4456 33.7333H83.7678C85.0949 33.7333 86.2892 33.7 86.5877 33.6333C86.8531 33.6 87.2844 33.5 87.5166 33.4333C87.8484 33.3333 88.0475 33.2333 88.2465 33.0333C88.4456 32.8333 88.5119 32.7 88.5119 32.5667C88.5119 32.4667 88.4456 32.3 88.3792 32.2C88.2797 32.1 88.1138 31.9667 87.9479 31.9C87.8152 31.8667 86.82 31.5667 85.7915 31.3C84.5641 30.9667 83.6683 30.7 83.3366 30.5333C83.038 30.4 82.6399 30.1333 82.474 30C82.3081 29.8333 82.0759 29.5333 81.9764 29.3333C81.8437 29.0333 81.8105 28.8667 81.8105 28.4667C81.8105 28.2 81.8769 27.7667 81.9432 27.5333C81.9764 27.3 82.1423 26.9 82.275 26.6333C82.3745 26.3667 82.6067 26 82.7726 25.8333C82.9053 25.6333 83.2039 25.3667 83.3697 25.2C83.5688 25.0667 84.0332 24.7667 84.3982 24.6C84.7631 24.4333 85.2939 24.2 85.5925 24.1333C85.8579 24.0667 86.3555 23.9667 86.6209 23.9333C86.9195 23.9 87.2844 23.8667 87.4171 23.8333C87.583 23.8333 88.91 23.8333 90.4361 23.8ZM102.28 23.8C104.071 23.8 105 23.8333 105 23.8667C105 23.9 104.701 24.3333 103.64 25.7667L101.384 25.8C99.6256 25.8333 98.9621 25.8667 98.6303 25.9667C98.3649 26.0333 98.0332 26.1333 97.8673 26.2333C97.6351 26.3333 97.5356 26.4333 97.4029 26.6667C97.2702 26.9333 97.2702 27 97.3365 27.2C97.4029 27.3667 97.5356 27.4667 97.7346 27.5667C97.9005 27.6667 98.8626 27.9667 99.891 28.2333C101.13 28.5667 101.926 28.8222 102.28 29C102.578 29.1667 102.943 29.4 103.142 29.6C103.341 29.7667 103.573 30.1 103.673 30.3C103.839 30.6333 103.839 30.7667 103.839 31.2667C103.839 31.6667 103.773 31.9667 103.673 32.3667C103.573 32.6667 103.374 33.0667 103.242 33.3C103.109 33.5 102.777 33.8667 102.545 34.1C102.28 34.3333 101.915 34.6 101.55 34.8C101.218 34.9667 100.72 35.1667 100.488 35.2667C100.223 35.3333 99.692 35.4667 99.2939 35.5333C98.6303 35.6667 98.2323 35.6667 95.2133 35.7C92.128 35.7333 91.8626 35.7333 91.929 35.6333C91.929 35.5667 92.2607 35.1 93.3223 33.7L95.6778 33.7333C97.5024 33.7333 98.1659 33.7 98.5972 33.6333C98.9289 33.5667 99.327 33.4667 99.5261 33.4C99.7251 33.3333 99.9905 33.1667 100.09 33.0667C100.19 32.9667 100.322 32.8 100.355 32.7C100.389 32.5667 100.355 32.4 100.322 32.3333C100.289 32.2333 100.156 32.1 100.024 32C99.8578 31.9333 98.7962 31.6 97.6683 31.3C96.3744 30.9333 95.4124 30.6333 95.1138 30.5C94.8484 30.3667 94.4834 30.1333 94.3176 29.9667C94.1185 29.7667 93.9195 29.5 93.8531 29.3667C93.7868 29.2 93.7204 28.9 93.6872 28.5667C93.6872 28.2 93.7204 27.8667 93.7868 27.6C93.8531 27.3667 94.019 26.9 94.1517 26.6C94.3839 26.1333 94.5498 25.9333 94.9811 25.5C95.346 25.1333 95.6778 24.9 96.0095 24.7C96.2749 24.5667 96.7062 24.3667 96.9384 24.3C97.1706 24.2333 97.6019 24.1 97.9337 24.0333C98.2322 23.9667 98.7299 23.9 99.0285 23.8667C99.327 23.8333 100.787 23.8 102.28 23.8Z" fill="black"/>
</svg>
