<svg width="19" height="19" viewBox="0 0 19 19" fill="none" xmlns="http://www.w3.org/2000/svg">
<g clip-path="url(#clip0_0_889)">
<path d="M18.9703 14.3606L18.1075 18.1012C17.9863 18.63 17.5216 19 16.9772 19C7.61484 18.9992 0 11.3844 0 2.0217C0 1.47768 0.369943 1.01233 0.898789 0.891722L4.63941 0.0289294C5.18418 -0.0973167 5.74082 0.185457 5.96719 0.701351L7.69352 4.72772C7.89532 5.20198 7.7592 5.75453 7.36027 6.08036L5.3623 7.68459C6.62328 10.2533 8.7118 12.3418 11.2812 13.6035L12.917 11.6071C13.2394 11.207 13.7962 11.0686 14.2704 11.274L18.2968 13C18.7811 13.2547 19.0965 13.8188 18.9703 14.3606Z" fill="white"/>
</g>
<defs>
<clipPath id="clip0_0_889">
<rect width="19" height="19" fill="white"/>
</clipPath>
</defs>
</svg>
