<svg width="22" height="22" viewBox="0 0 22 22" fill="none" xmlns="http://www.w3.org/2000/svg">
<path fill-rule="evenodd" clip-rule="evenodd" d="M0.867704 4.22683C0.241436 4.49029 -0.00425151 4.95239 5.5571e-05 5.85863L0.0029881 6.47865L5.41937 9.32631C8.39832 10.8925 10.9098 12.174 11.0004 12.174C11.091 12.174 13.6029 10.8925 16.5825 9.32631L22 6.47865L21.9724 5.7298C21.9428 4.92374 21.8343 4.69247 21.314 4.32668C21.0624 4.14978 21.0019 4.14865 11.1018 4.12993C2.94115 4.11457 1.09296 4.132 0.867704 4.22683ZM0.0179254 13.2463C0.042485 18.3161 0.0467004 18.4224 0.231905 18.656C0.335825 18.787 0.534684 18.9742 0.673885 19.0721C0.925895 19.2492 0.969333 19.25 10.9939 19.25C21.0185 19.25 21.062 19.2492 21.314 19.0721C21.4532 18.9742 21.652 18.787 21.756 18.656C21.9412 18.4224 21.9454 18.3161 21.9699 13.2463C21.9837 10.4021 21.9751 8.07507 21.9509 8.07507C21.9267 8.07507 19.5236 9.34504 16.6107 10.8973C13.698 12.4495 11.2026 13.7352 11.0656 13.7543C10.8708 13.7816 9.64719 13.1664 5.45218 10.9321C2.50183 9.36075 0.0665863 8.07507 0.0404688 8.07507C0.0143514 8.07507 0.00417943 10.4021 0.0179254 13.2463Z" fill="white"/>
</svg>
