<svg width="121" height="44" viewBox="0 0 121 44" fill="none" xmlns="http://www.w3.org/2000/svg">
<rect width="121" height="44" rx="2" fill="white"/>
<path fill-rule="evenodd" clip-rule="evenodd" d="M9 21.6702V34.3405H10.9464H12.8928L12.8725 25.9424C12.8524 17.6321 12.8507 17.5362 12.715 16.7646C12.5524 15.8402 12.5513 15.8224 12.6602 15.8224C12.7111 15.8224 12.9137 16.2567 13.1679 16.9108C13.6105 18.0492 13.8202 18.4853 14.5193 19.721C14.7518 20.1319 15.0637 20.7021 15.2124 20.988C15.3612 21.2739 15.7136 21.9172 15.9958 22.4175C16.2779 22.9178 16.6079 23.52 16.7293 23.7557C16.8506 23.9914 17.1606 24.5616 17.4181 25.0227C17.6758 25.4839 18.2173 26.4679 18.6216 27.2094L19.3567 28.5577H20.8877H22.4186L22.5697 28.2815C22.6527 28.1297 23.039 27.4206 23.428 26.7059C23.817 25.9911 24.3617 24.997 24.6386 24.4967C24.9153 23.9964 25.2406 23.397 25.3613 23.1647C25.4821 22.9324 25.7833 22.3769 26.0308 21.9301C26.2782 21.4834 26.645 20.8109 26.8459 20.4357C27.0468 20.0605 27.4153 19.388 27.6648 18.9413C27.9368 18.4545 28.2909 17.6767 28.5488 17.0002C28.9314 15.996 29.0715 15.7341 29.1706 15.8368C29.2003 15.8675 29.1359 16.4072 28.9738 17.4874C28.9006 17.9757 28.8849 19.514 28.8849 26.2104V34.3405H30.8295H32.7741V21.6702V9L30.8452 9.00214L28.9163 9.00429L28.4606 9.83058C28.21 10.285 27.6904 11.227 27.306 11.9239C26.9216 12.6208 26.4729 13.4434 26.3088 13.7521C26.1449 14.0607 25.7682 14.7418 25.4718 15.2658C25.1755 15.7897 24.933 16.2321 24.933 16.249C24.933 16.2658 24.6278 16.8274 24.2549 17.4967C23.3006 19.2094 22.5076 20.6451 22.2009 21.2154C22.0569 21.4834 21.883 21.8051 21.8147 21.9301C21.4176 22.6568 21.2933 22.9222 21.1374 23.3759C21.0422 23.6528 20.9278 23.8794 20.8832 23.8794C20.8385 23.8794 20.713 23.6382 20.6041 23.3434C20.3691 22.7073 20.0376 22.0535 19.2037 20.5815C18.9758 20.1792 18.6563 19.5944 18.4936 19.2819C18.3309 18.9695 18.0532 18.4653 17.8764 18.1616C17.6996 17.8578 17.4323 17.3754 17.2823 17.0895C17.1323 16.8036 16.7492 16.1018 16.4307 15.53C15.6546 14.1361 14.6529 12.3134 14.3775 11.794C14.2543 11.5617 13.9409 10.9944 13.6809 10.5335C13.421 10.0725 13.1295 9.53897 13.0331 9.34781L12.8578 9.00033L10.9289 9.00013L9 9V21.6702ZM44.2804 9.17868C44.2595 9.27693 43.9795 10.1907 43.6582 11.2092C43.337 12.2277 42.9839 13.368 42.8736 13.7432C42.7634 14.1185 42.4093 15.2734 42.0869 16.3098C41.7645 17.3461 41.1894 19.2028 40.8089 20.4357C39.1958 25.6634 38.7015 27.258 38.1657 28.9609C37.8542 29.9511 37.4898 31.1352 37.3557 31.5924C37.2217 32.0496 37.0144 32.7381 36.895 33.1225L36.6778 33.8212L38.0349 34.2716C40.157 34.9758 40.2548 35.0032 40.3123 34.9094C40.3398 34.8645 40.4048 34.667 40.4567 34.4704C40.5085 34.2739 40.8307 33.2359 41.1726 32.1638C41.5144 31.0917 41.9251 29.783 42.085 29.2557L42.3759 28.2968L46.5266 28.3135L50.6772 28.3302L51.0153 29.4348C51.2012 30.0424 51.6187 31.3874 51.943 32.4237C52.2673 33.4601 52.5798 34.4615 52.6374 34.6491C52.695 34.8368 52.749 34.9903 52.7574 34.9903C52.7658 34.9903 53.2765 34.8302 53.892 34.6346C55.7771 34.0358 56.3291 33.833 56.3211 33.7427C56.3121 33.6397 55.9652 32.4967 54.935 29.1749C53.8241 25.593 53.0907 23.2199 52.2842 20.5981C51.8994 19.3474 51.2789 17.3445 50.9051 16.1473C50.5315 14.9501 50.177 13.7952 50.1176 13.5808C50.058 13.3664 49.7469 12.3576 49.4261 11.3391C49.1053 10.3206 48.8101 9.3777 48.7701 9.24366L48.6973 9H46.5079H44.3185L44.2804 9.17868ZM60.2491 21.6702V34.3405H62.1937H64.1382V29.4348V24.5292H65.0393H65.9405L67.0623 25.8088C67.6794 26.5126 68.6218 27.5841 69.1565 28.1898C70.2876 29.4712 70.9854 30.2678 71.6127 30.9942C71.8596 31.2801 72.276 31.7512 72.538 32.0411C72.8 32.3309 73.3672 32.9722 73.7984 33.466C74.2297 33.9598 74.7101 34.507 74.8661 34.6819L75.1496 35L76.5401 33.7119C77.3049 33.0034 77.9323 32.3928 77.9345 32.355C77.9367 32.3172 77.6632 31.9779 77.3269 31.601C76.9905 31.2241 76.3483 30.4969 75.8998 29.985C75.4513 29.473 74.8726 28.8176 74.6139 28.5285C74.3551 28.2393 73.7624 27.5667 73.2966 27.0337C72.8308 26.5007 72.2804 25.8769 72.0734 25.6475C71.8664 25.4181 71.6882 25.206 71.6774 25.1762C71.6627 25.1355 70.8816 24.4573 70.7326 24.3558C70.7198 24.347 70.7255 24.2959 70.7454 24.2422C70.7757 24.1606 70.8481 24.176 71.1909 24.3369C71.5958 24.5271 71.6121 24.5292 72.715 24.5274L73.8298 24.5257L75.7299 22.5944L77.6301 20.6631L77.6274 16.778L77.6248 12.8929L75.7273 10.9474L73.8298 9.00188L67.0394 9.00091L60.2491 9V21.6702ZM82.894 21.6702V34.3405H90.6096H98.3252V32.4887V30.6369H92.5542H86.7832V19.8184V9H84.8386H82.894V21.6702ZM101.148 10.8518V12.7036H102.873H104.598V21.6702V30.6369H102.873H101.148V32.4887V34.3405H106.574H112V32.4887V30.6369H110.244H108.487V21.6702V12.7036H110.244H112V10.8518V9H106.574H101.148V10.8518ZM72.8488 13.5219L73.673 14.3402V16.7554V19.1705L72.8405 20.031L72.008 20.8915L68.0888 20.8748L64.1696 20.8581L64.1534 16.7808L64.1373 12.7036H68.081H72.0248L72.8488 13.5219ZM46.637 13.9676C46.637 13.9838 46.7237 14.5613 46.8297 15.2509C46.9975 16.3422 47.0864 16.7068 47.516 18.0641C47.7875 18.9218 48.1406 20.0621 48.3006 20.5981C48.4607 21.1342 48.8011 22.2307 49.0571 23.0347C49.3131 23.8389 49.5225 24.5186 49.5225 24.5454C49.5225 24.5723 48.1646 24.5941 46.5049 24.5941C44.1174 24.5941 43.4931 24.5772 43.5157 24.5129C43.5314 24.4683 43.8069 23.5838 44.1279 22.5474C44.4489 21.5111 45.005 19.72 45.3638 18.5673C45.7805 17.2284 46.0476 16.2547 46.1035 15.8708C46.3531 14.1565 46.4003 13.9381 46.5212 13.9381C46.5849 13.9381 46.637 13.9514 46.637 13.9676Z" fill="#037394"/>
</svg>
