<svg width="35" height="35" viewBox="0 0 35 35" fill="none" xmlns="http://www.w3.org/2000/svg">
<rect width="35" height="35" fill="#F5F5F5"/>
<g id="Contact" clip-path="url(#clip0_0_1)">
<rect width="1920" height="1759" transform="translate(-483 -653)" fill="white"/>
<g id="1298775_whatsapp_chat_sms_social media_talk_icon" clip-path="url(#clip1_0_1)">
<g id="_x36__stroke">
<g id="WhatsApp">
<path id="WhatsApp_1_" fill-rule="evenodd" clip-rule="evenodd" d="M12.6093 8.88918C12.27 8.07652 12.0127 8.04562 11.4986 8.02484C11.3236 8.01473 11.1286 8.00461 10.9123 8.00461C10.2435 8.00461 9.54434 8.20012 9.12242 8.63215C8.60836 9.15687 7.33277 10.3811 7.33277 12.8912C7.33277 15.4016 9.16344 17.8295 9.41035 18.1694C9.66766 18.5084 12.9795 23.7349 18.1221 25.865C22.1435 27.5316 23.3368 27.3771 24.252 27.1819C25.5891 26.8939 27.2655 25.9057 27.6875 24.7127C28.1091 23.5192 28.1091 22.5006 27.9855 22.2846C27.8622 22.0686 27.5226 21.9455 27.0085 21.688C26.4945 21.4307 23.995 20.1961 23.5219 20.0315C23.059 19.8568 22.6168 19.9186 22.2674 20.4124C21.7736 21.1017 21.2904 21.8014 20.8994 22.2231C20.5909 22.5523 20.0867 22.5936 19.6651 22.4186C19.0993 22.1823 17.5156 21.6262 15.5613 19.8877C14.0492 18.5402 13.0208 16.8634 12.7228 16.3592C12.4245 15.8449 12.6919 15.5463 12.9284 15.2688C13.1857 14.9496 13.4323 14.7235 13.6894 14.4249C13.9467 14.1266 14.0905 13.9724 14.2551 13.6224C14.4301 13.283 14.3065 12.933 14.1832 12.6757C14.0596 12.4179 13.0312 9.90746 12.6093 8.88918ZM17.4948 0C7.84738 0 0 7.84957 0 17.4997C0 21.3268 1.2343 24.8763 3.33238 27.7569L1.15172 34.259L7.87828 32.1092C10.6449 33.9404 13.9464 35 17.5052 35C27.1526 35 35 27.1499 35 17.5003C35 7.85012 27.1526 0.000546875 17.5052 0.000546875H17.4951L17.4948 0Z" fill="#67C15E"/>
</g>
</g>
</g>
</g>
<defs>
<clipPath id="clip0_0_1">
<rect width="1920" height="1759" fill="white" transform="translate(-483 -653)"/>
</clipPath>
<clipPath id="clip1_0_1">
<rect width="35" height="35" fill="white"/>
</clipPath>
</defs>
</svg>
