<svg width="31" height="31" viewBox="0 0 31 31" fill="none" xmlns="http://www.w3.org/2000/svg">
<g id="facebook-logo">
<path id="Vector" d="M15.5 2.90625C13.0092 2.90625 10.5743 3.64486 8.50329 5.02868C6.43226 6.4125 4.81809 8.37937 3.8649 10.6806C2.91171 12.9818 2.66231 15.514 3.14824 17.9569C3.63417 20.3999 4.83361 22.6439 6.59488 24.4051C8.35615 26.1664 10.6001 27.3658 13.0431 27.8518C15.486 28.3377 18.0182 28.0883 20.3194 27.1351C22.6206 26.1819 24.5875 24.5677 25.9713 22.4967C27.3551 20.4257 28.0938 17.9908 28.0938 15.5C28.0902 12.161 26.7623 8.95979 24.4012 6.59877C22.0402 4.23775 18.839 2.90978 15.5 2.90625ZM16.4688 26.1114V18.4062H19.375C19.6319 18.4062 19.8783 18.3042 20.06 18.1225C20.2417 17.9408 20.3438 17.6944 20.3438 17.4375C20.3438 17.1806 20.2417 16.9342 20.06 16.7525C19.8783 16.5708 19.6319 16.4688 19.375 16.4688H16.4688V13.5625C16.4688 13.0486 16.6729 12.5558 17.0362 12.1925C17.3996 11.8291 17.8924 11.625 18.4063 11.625H20.3438C20.6007 11.625 20.8471 11.5229 21.0288 11.3413C21.2104 11.1596 21.3125 10.9132 21.3125 10.6562C21.3125 10.3993 21.2104 10.1529 21.0288 9.97124C20.8471 9.78956 20.6007 9.6875 20.3438 9.6875H18.4063C17.3785 9.6875 16.3929 10.0958 15.6662 10.8225C14.9395 11.5492 14.5313 12.5348 14.5313 13.5625V16.4688H11.625C11.3681 16.4688 11.1217 16.5708 10.94 16.7525C10.7583 16.9342 10.6563 17.1806 10.6563 17.4375C10.6563 17.6944 10.7583 17.9408 10.94 18.1225C11.1217 18.3042 11.3681 18.4062 11.625 18.4062H14.5313V26.1114C11.8003 25.8621 9.27066 24.5697 7.46839 22.5028C5.66612 20.436 4.73001 17.7539 4.85479 15.0144C4.97957 12.275 6.15562 9.68914 8.13832 7.79469C10.121 5.90024 12.7577 4.84307 15.5 4.84307C18.2423 4.84307 20.879 5.90024 22.8617 7.79469C24.8444 9.68914 26.0204 12.275 26.1452 15.0144C26.27 17.7539 25.3339 20.436 23.5316 22.5028C21.7294 24.5697 19.1997 25.8621 16.4688 26.1114Z" fill="white"/>
</g>
</svg>
