<svg width="32" height="31" viewBox="0 0 32 31" fill="none" xmlns="http://www.w3.org/2000/svg">
<path fill-rule="evenodd" clip-rule="evenodd" d="M7.3466 5.32812L23.1699 25.6719H24.654L8.83072 5.32812H7.3466ZM5.9602 2.42188C5.54329 2.42185 5.13473 2.53879 4.78098 2.75942C4.42715 2.98008 4.14235 3.29562 3.95896 3.67012C3.77558 4.04463 3.70097 4.46309 3.74362 4.8779C3.78627 5.29271 3.94447 5.68723 4.20023 6.01658L21.0784 27.7166L21.0791 27.7175C21.287 27.9848 21.553 28.2013 21.8571 28.3505C22.1615 28.4998 22.4959 28.5776 22.8349 28.5781H26.0402C26.4571 28.5781 26.8659 28.4612 27.2197 28.2406C27.5735 28.0199 27.8583 27.7044 28.0417 27.3299C28.2251 26.9554 28.2997 26.5369 28.257 26.1221C28.2144 25.7073 28.0562 25.3128 27.8004 24.9834L10.9222 3.28342L10.9215 3.28252C10.7137 3.01516 10.4476 2.79868 10.1436 2.64955C9.83918 2.50025 9.50473 2.42238 9.1657 2.42188H5.9602Z" fill="white"/>
<path fill-rule="evenodd" clip-rule="evenodd" d="M27.2988 2.78894C27.8986 3.32211 27.9527 4.24059 27.4195 4.84042L6.75283 28.0904C6.21965 28.6902 5.30117 28.7443 4.70134 28.2111C4.10152 27.6779 4.04749 26.7594 4.58067 26.1596L25.2473 2.90961C25.7805 2.30979 26.699 2.25576 27.2988 2.78894Z" fill="white"/>
</svg>
