<svg width="35" height="35" viewBox="0 0 35 35" fill="none" xmlns="http://www.w3.org/2000/svg">
<path d="M17.5 35C27.165 35 35 27.165 35 17.5C35 7.83502 27.165 0 17.5 0C7.83502 0 0 7.83502 0 17.5C0 27.165 7.83502 35 17.5 35Z" fill="#7C519B"/>
<path d="M17.4059 9.77187C17.5167 9.66999 17.5953 9.6556 17.9814 9.66765C18.184 9.67465 18.4788 9.69799 18.6406 9.71704C19.4565 9.81893 20.1164 10.0157 20.839 10.368C21.5503 10.7165 22.006 11.0455 22.6084 11.6448C23.1719 12.2106 23.4854 12.6392 23.8175 13.3045C24.2799 14.2328 24.5431 15.3365 24.5882 16.551C24.6046 16.9655 24.5929 17.0585 24.4984 17.1759C24.318 17.4062 23.9217 17.368 23.7871 17.1098C23.7436 17.0247 23.7315 16.9512 23.7179 16.619C23.6942 16.11 23.6588 15.7814 23.5872 15.3878C23.3073 13.8467 22.568 12.6154 21.3869 11.7323C20.4023 10.9942 19.3853 10.6333 18.053 10.5559C17.6019 10.5302 17.5237 10.5135 17.4218 10.4349C17.2324 10.2852 17.2227 9.93521 17.4059 9.77187ZM20.2323 12.8215C19.7555 12.5377 19.0513 12.3273 18.4092 12.2748C18.1759 12.2557 18.0483 12.2087 17.9608 12.1068C17.8255 11.9528 17.8115 11.7443 17.925 11.5713C18.0483 11.3799 18.2377 11.3488 18.8043 11.4336C20.244 11.6448 21.3589 12.3125 22.0889 13.3971C22.5003 14.0077 22.7558 14.7255 22.8437 15.4952C22.8736 15.7771 22.8736 16.2904 22.8402 16.3756C22.8102 16.4561 22.7099 16.5654 22.6248 16.6105C22.5326 16.6575 22.335 16.6529 22.2261 16.5961C22.0441 16.5043 21.9893 16.3569 21.9893 15.9595C21.9893 15.3458 21.8306 14.6995 21.5557 14.1982C21.2423 13.6242 20.7873 13.1513 20.2323 12.8215ZM21.0338 15.9782C20.8942 16.1057 20.6352 16.1104 20.4785 15.9902C20.3653 15.9043 20.3291 15.814 20.3031 15.571C20.2728 15.2467 20.216 15.0188 20.118 14.8084C19.9095 14.3612 19.542 14.1286 18.9206 14.0528C18.6293 14.0178 18.541 13.9843 18.4465 13.8727C18.2731 13.667 18.34 13.3333 18.5795 13.2097C18.6694 13.1657 18.7067 13.1603 18.9066 13.1723C19.0295 13.1793 19.2123 13.2003 19.3095 13.2217C19.7765 13.3213 20.1351 13.499 20.4404 13.7852C20.8347 14.1574 21.0505 14.6069 21.1454 15.2533C21.2096 15.6752 21.1831 15.8409 21.0338 15.9782ZM24.5762 22.1988C24.4016 22.6507 23.7183 23.4985 23.2415 23.8605C22.8102 24.1872 22.5038 24.3124 22.1001 24.3323C21.7688 24.3482 21.6311 24.3194 21.2069 24.1448C17.8772 22.774 15.2184 20.7284 13.1075 17.9172C12.0054 16.4491 11.1658 14.927 10.591 13.3469C10.2577 12.4264 10.2414 12.0263 10.5159 11.5545C10.6349 11.3562 11.1393 10.8635 11.508 10.5893C12.1197 10.1343 12.402 9.96632 12.6264 9.91849C12.7812 9.88504 13.0488 9.91149 13.2195 9.97332C13.3019 10.0013 13.431 10.0682 13.5038 10.1153C13.9549 10.4139 15.209 12.0165 15.6189 12.8169C15.8538 13.2742 15.9324 13.6122 15.8585 13.8634C15.7823 14.1329 15.6563 14.2752 15.0951 14.7279C14.8695 14.9103 14.658 15.0969 14.6253 15.1471C14.5398 15.27 14.4709 15.5119 14.4709 15.6818C14.4733 16.0777 14.7299 16.7944 15.0663 17.3467C15.3276 17.7752 15.7939 18.3243 16.2571 18.7459C16.8 19.2433 17.2787 19.582 17.82 19.8495C18.5142 20.1953 18.9393 20.2824 19.2496 20.1381C19.3281 20.1031 19.4114 20.0553 19.4366 20.0339C19.4604 20.0125 19.6427 19.79 19.8426 19.5439C20.2265 19.0609 20.3148 18.9827 20.5776 18.8929C20.9125 18.7789 21.2535 18.8093 21.5973 18.9847C21.8586 19.12 22.4276 19.4731 22.7947 19.7282C23.2789 20.0669 24.3129 20.91 24.4529 21.078C24.7002 21.3818 24.743 21.7699 24.5762 22.1988Z" fill="white"/>
</svg>
