<svg width="31" height="31" viewBox="0 0 31 31" fill="none" xmlns="http://www.w3.org/2000/svg">
<g id="linkedin-logo">
<path id="Vector" d="M26.1562 2.90625H4.84375C4.32989 2.90625 3.83708 3.11038 3.47373 3.47373C3.11038 3.83708 2.90625 4.32989 2.90625 4.84375V26.1562C2.90625 26.6701 3.11038 27.1629 3.47373 27.5263C3.83708 27.8896 4.32989 28.0938 4.84375 28.0938H26.1562C26.6701 28.0938 27.1629 27.8896 27.5263 27.5263C27.8896 27.1629 28.0938 26.6701 28.0938 26.1562V4.84375C28.0938 4.32989 27.8896 3.83708 27.5263 3.47373C27.1629 3.11038 26.6701 2.90625 26.1562 2.90625ZM26.1562 26.1562H4.84375V4.84375H26.1562V26.1562ZM11.625 13.5625V21.3125C11.625 21.5694 11.5229 21.8158 11.3413 21.9975C11.1596 22.1792 10.9132 22.2812 10.6562 22.2812C10.3993 22.2812 10.1529 22.1792 9.97124 21.9975C9.78956 21.8158 9.6875 21.5694 9.6875 21.3125V13.5625C9.6875 13.3056 9.78956 13.0592 9.97124 12.8775C10.1529 12.6958 10.3993 12.5938 10.6562 12.5938C10.9132 12.5938 11.1596 12.6958 11.3413 12.8775C11.5229 13.0592 11.625 13.3056 11.625 13.5625ZM22.2812 16.9531V21.3125C22.2812 21.5694 22.1792 21.8158 21.9975 21.9975C21.8158 22.1792 21.5694 22.2812 21.3125 22.2812C21.0556 22.2812 20.8092 22.1792 20.6275 21.9975C20.4458 21.8158 20.3438 21.5694 20.3438 21.3125V16.9531C20.3438 16.3108 20.0886 15.6948 19.6344 15.2406C19.1802 14.7864 18.5642 14.5312 17.9219 14.5312C17.2796 14.5312 16.6635 14.7864 16.2094 15.2406C15.7552 15.6948 15.5 16.3108 15.5 16.9531V21.3125C15.5 21.5694 15.3979 21.8158 15.2163 21.9975C15.0346 22.1792 14.7882 22.2812 14.5312 22.2812C14.2743 22.2812 14.0279 22.1792 13.8462 21.9975C13.6646 21.8158 13.5625 21.5694 13.5625 21.3125V13.5625C13.5637 13.3252 13.652 13.0966 13.8105 12.9201C13.9691 12.7435 14.1869 12.6313 14.4227 12.6048C14.6585 12.5782 14.8959 12.6391 15.0898 12.7759C15.2836 12.9127 15.4206 13.1159 15.4746 13.347C16.1299 12.9024 16.894 12.6447 17.6847 12.6016C18.4754 12.5586 19.263 12.7317 19.9627 13.1024C20.6625 13.4732 21.2481 14.0275 21.6565 14.7059C22.065 15.3843 22.281 16.1612 22.2812 16.9531ZM12.1094 10.1719C12.1094 10.4593 12.0242 10.7402 11.8645 10.9792C11.7048 11.2182 11.4779 11.4044 11.2123 11.5144C10.9468 11.6244 10.6546 11.6531 10.3728 11.5971C10.0909 11.541 9.83196 11.4026 9.62874 11.1994C9.42551 10.9962 9.28712 10.7372 9.23105 10.4554C9.17498 10.1735 9.20375 9.88131 9.31374 9.61579C9.42372 9.35026 9.60997 9.12332 9.84894 8.96365C10.0879 8.80397 10.3688 8.71875 10.6562 8.71875C11.0416 8.71875 11.4113 8.87185 11.6838 9.14436C11.9563 9.41687 12.1094 9.78648 12.1094 10.1719Z" fill="white"/>
</g>
</svg>
