<svg width="35" height="35" viewBox="0 0 35 35" fill="none" xmlns="http://www.w3.org/2000/svg">
<path d="M17.5 35C27.165 35 35 27.165 35 17.5C35 7.83502 27.165 0 17.5 0C7.83502 0 0 7.83502 0 17.5C0 27.165 7.83502 35 17.5 35Z" fill="url(#paint0_linear_0_870)"/>
<path d="M26.0177 10.0695L22.8936 25.8263C22.8936 25.8263 22.4561 26.9201 21.253 26.3937L14.0411 20.8635L11.4161 19.5988L7.00008 18.1154C7.00008 18.1154 6.32332 17.8762 6.25496 17.3498C6.1866 16.8234 7.02059 16.5431 7.02059 16.5431L24.5753 9.65935C24.5753 9.65252 26.0177 9.01678 26.0177 10.0695Z" fill="white"/>
<path d="M13.4814 25.6484C13.4814 25.6484 13.2695 25.6279 13.0098 24.8008C12.75 23.9736 11.417 19.5986 11.417 19.5986L22.0195 12.8652C22.0195 12.8652 22.6348 12.4961 22.6074 12.8652C22.6074 12.8652 22.7168 12.9336 22.3887 13.2344C22.0605 13.542 14.0625 20.7334 14.0625 20.7334" fill="#D2E4F0"/>
<path d="M16.8037 22.9824L13.9531 25.5869C13.9531 25.5869 13.7275 25.7578 13.4883 25.6484L14.0352 20.8154" fill="#B5CFE4"/>
<defs>
<linearGradient id="paint0_linear_0_870" x1="17.5" y1="0" x2="17.5" y2="34.8723" gradientUnits="userSpaceOnUse">
<stop stop-color="#41BCE7"/>
<stop offset="1" stop-color="#22A6DC"/>
</linearGradient>
</defs>
</svg>
